<?xml version="1.0" standalone="no"?>
<!DOCTYPE svg PUBLIC "-//W3C//DTD SVG 1.1//EN" "http://www.w3.org/Graphics/SVG/1.1/DTD/svg11.dtd">
<svg xmlns="http://www.w3.org/2000/svg" width="100%" height="100%" viewBox="0 0 262.8 131.943041052207" version="1.1">
<desc>Hex grid</desc>
<g id="hexes">




<polygon id="4" style="opacity:0.2;fill:black" points="14.4,56.1184461652316 10.8000000074612,62.3538290681718 3.60000001492249,62.3538290810951 0,56.1184461910781 3.59999997015502,49.8830632752147 10.7999999626938,49.8830632364449"></polygon>
<polygon id="5" style="opacity:0.2;fill:black" points="14.4,68.5892119797275 10.8000000074612,74.8245948826677 3.60000001492249,74.824594895591 0,68.589212005574 3.59999997015502,62.3538290897106 10.7999999626938,62.3538290509408"></polygon>
<polygon id="6" style="opacity:0.2;fill:black" points="14.4,81.0599777942235 10.8000000074612,87.2953606971637 3.60000001492249,87.2953607100869 0,81.05997782007 3.59999997015502,74.8245949042065 10.7999999626938,74.8245948654367"></polygon>
<polygon id="7" style="opacity:0.2;fill:black" points="14.4,93.5307436087194 10.8000000074612,99.7661265116596 3.60000001492249,99.7661265245828 0,93.5307436345659 3.59999997015502,87.2953607187024 10.7999999626938,87.2953606799326"></polygon>
<polygon id="8" style="opacity:0.2;fill:black" points="14.4,106.001509423215 10.8000000074612,112.236892326155 3.60000001492249,112.236892339079 0,106.001509449062 3.59999997015502,99.7661265331983 10.7999999626938,99.7661264944286"></polygon>
<polygon id="9" style="opacity:0.2;fill:black" points="14.4,118.472275237711 10.8000000074612,124.707658140651 3.60000001492249,124.707658153575 0,118.472275263558 3.59999997015502,112.236892347694 10.7999999626938,112.236892308924"></polygon>




<polygon id="28" style="opacity:0.2;fill:black" points="25.2,62.3538290724796 21.6000000074612,68.5892119754198 14.4000000149225,68.589211988343 10.8,62.3538290983261 14.399999970155,56.1184461824626 21.5999999626938,56.1184461436929"></polygon>
<polygon id="29" style="opacity:0.2;fill:black" points="25.2,74.8245948869755 21.6000000074612,81.0599777899157 14.4000000149225,81.059977802839 10.8,74.824594912822 14.399999970155,68.5892119969586 21.5999999626938,68.5892119581888"></polygon>
<polygon id="30" style="opacity:0.2;fill:black" points="25.2,87.2953607014714 21.6000000074612,93.5307436044116 14.4000000149225,93.5307436173349 10.8,87.2953607273179 14.399999970155,81.0599778114545 21.5999999626938,81.0599777726847"></polygon>
<polygon id="31" style="opacity:0.2;fill:black" points="25.2,99.7661265159673 21.6000000074612,106.001509418908 14.4000000149225,106.001509431831 10.8,99.7661265418138 14.399999970155,93.5307436259504 21.5999999626938,93.5307435871806"></polygon>
<polygon id="32" style="opacity:0.2;fill:black" points="25.2,112.236892330463 21.6000000074612,118.472275233403 14.4000000149225,118.472275246327 10.8,112.23689235631 14.399999970155,106.001509440446 21.5999999626938,106.001509401677"></polygon>
<polygon id="33" style="opacity:0.2;fill:black" points="25.2,124.707658144959 21.6000000074612,130.943041047899 14.4000000149225,130.943041060823 10.8,124.707658170806 14.399999970155,118.472275254942 21.5999999626938,118.472275216172"></polygon>




<polygon id="52" style="opacity:0.2;fill:black" points="36,56.1184461652316 32.4000000074612,62.3538290681718 25.2000000149225,62.3538290810951 21.6,56.1184461910781 25.199999970155,49.8830632752147 32.3999999626938,49.8830632364449"></polygon>
<polygon id="53" style="opacity:0.2;fill:black" points="36,68.5892119797275 32.4000000074612,74.8245948826677 25.2000000149225,74.824594895591 21.6,68.589212005574 25.199999970155,62.3538290897106 32.3999999626938,62.3538290509408"></polygon>
<polygon id="54" style="opacity:0.2;fill:black" points="36,81.0599777942235 32.4000000074612,87.2953606971637 25.2000000149225,87.2953607100869 21.6,81.05997782007 25.199999970155,74.8245949042065 32.3999999626938,74.8245948654367"></polygon>
<polygon id="55" style="opacity:0.2;fill:black" points="36,93.5307436087194 32.4000000074612,99.7661265116596 25.2000000149225,99.7661265245828 21.6,93.5307436345659 25.199999970155,87.2953607187024 32.3999999626938,87.2953606799326"></polygon>
<polygon id="56" style="opacity:0.2;fill:black" points="36,106.001509423215 32.4000000074612,112.236892326155 25.2000000149225,112.236892339079 21.6,106.001509449062 25.199999970155,99.7661265331983 32.3999999626938,99.7661264944286"></polygon>
<polygon id="57" style="opacity:0.2;fill:black" points="36,118.472275237711 32.4000000074612,124.707658140651 25.2000000149225,124.707658153575 21.6,118.472275263558 25.199999970155,112.236892347694 32.3999999626938,112.236892308924"></polygon>





<polygon id="77" style="opacity:0.2;fill:black" points="46.8,74.8245948869755 43.2000000074612,81.0599777899157 36.0000000149225,81.059977802839 32.4,74.824594912822 35.999999970155,68.5892119969586 43.1999999626938,68.5892119581888"></polygon>
<polygon id="78" style="opacity:0.2;fill:black" points="46.8,87.2953607014714 43.2000000074612,93.5307436044116 36.0000000149225,93.5307436173349 32.4,87.2953607273179 35.999999970155,81.0599778114545 43.1999999626938,81.0599777726847"></polygon>
<polygon id="79" style="opacity:0.2;fill:black" points="46.8,99.7661265159673 43.2000000074612,106.001509418908 36.0000000149225,106.001509431831 32.4,99.7661265418138 35.999999970155,93.5307436259504 43.1999999626938,93.5307435871806"></polygon>
<polygon id="80" style="opacity:0.2;fill:black" points="46.8,112.236892330463 43.2000000074612,118.472275233403 36.0000000149225,118.472275246327 32.4,112.23689235631 35.999999970155,106.001509440446 43.1999999626938,106.001509401677"></polygon>
<polygon id="81" style="opacity:0.2;fill:black" points="46.8,124.707658144959 43.2000000074612,130.943041047899 36.0000000149225,130.943041060823 32.4,124.707658170806 35.999999970155,118.472275254942 43.1999999626938,118.472275216172"></polygon>






<polygon id="102" style="opacity:0.2;fill:black" points="57.6,81.0599777942235 54.0000000074612,87.2953606971637 46.8000000149225,87.2953607100869 43.2,81.05997782007 46.799999970155,74.8245949042065 53.9999999626938,74.8245948654367"></polygon>
<polygon id="103" style="opacity:0.2;fill:black" points="57.6,93.5307436087194 54.0000000074612,99.7661265116596 46.8000000149225,99.7661265245828 43.2,93.5307436345659 46.799999970155,87.2953607187024 53.9999999626938,87.2953606799326"></polygon>
<polygon id="104" style="opacity:0.2;fill:black" points="57.6,106.001509423215 54.0000000074612,112.236892326155 46.8000000149225,112.236892339079 43.2,106.001509449062 46.799999970155,99.7661265331983 53.9999999626938,99.7661264944286"></polygon>
<polygon id="105" style="opacity:0.2;fill:black" points="57.6,118.472275237711 54.0000000074612,124.707658140651 46.8000000149225,124.707658153575 43.2,118.472275263558 46.799999970155,112.236892347694 53.9999999626938,112.236892308924"></polygon>





<polygon id="125" style="opacity:0.2;fill:black" points="68.4,74.8245948869755 64.8000000074613,81.0599777899157 57.6000000149225,81.059977802839 54,74.824594912822 57.599999970155,68.5892119969586 64.7999999626938,68.5892119581888"></polygon>
<polygon id="126" style="opacity:0.2;fill:black" points="68.4,87.2953607014714 64.8000000074613,93.5307436044116 57.6000000149225,93.5307436173349 54,87.2953607273179 57.599999970155,81.0599778114545 64.7999999626938,81.0599777726847"></polygon>
<polygon id="127" style="opacity:0.2;fill:black" points="68.4,99.7661265159673 64.8000000074613,106.001509418908 57.6000000149225,106.001509431831 54,99.7661265418138 57.599999970155,93.5307436259504 64.7999999626938,93.5307435871806"></polygon>
<polygon id="128" style="opacity:0.2;fill:black" points="68.4,112.236892330463 64.8000000074613,118.472275233403 57.6000000149225,118.472275246327 54,112.23689235631 57.599999970155,106.001509440446 64.7999999626938,106.001509401677"></polygon>
<polygon id="129" style="opacity:0.2;fill:black" points="68.4,124.707658144959 64.8000000074613,130.943041047899 57.6000000149225,130.943041060823 54,124.707658170806 57.599999970155,118.472275254942 64.7999999626938,118.472275216172"></polygon>






<polygon id="150" style="opacity:0.2;fill:black" points="79.2,81.0599777942235 75.6000000074612,87.2953606971637 68.4000000149225,87.2953607100869 64.8,81.05997782007 68.399999970155,74.8245949042065 75.5999999626938,74.8245948654367"></polygon>
<polygon id="151" style="opacity:0.2;fill:black" points="79.2,93.5307436087194 75.6000000074612,99.7661265116596 68.4000000149225,99.7661265245828 64.8,93.5307436345659 68.399999970155,87.2953607187024 75.5999999626938,87.2953606799326"></polygon>
<polygon id="152" style="opacity:0.2;fill:black" points="79.2,106.001509423215 75.6000000074612,112.236892326155 68.4000000149225,112.236892339079 64.8,106.001509449062 68.399999970155,99.7661265331983 75.5999999626938,99.7661264944286"></polygon>
<polygon id="153" style="opacity:0.2;fill:black" points="79.2,118.472275237711 75.6000000074612,124.707658140651 68.4000000149225,124.707658153575 64.8,118.472275263558 68.399999970155,112.236892347694 75.5999999626938,112.236892308924"></polygon>




<polygon id="172" style="opacity:0.2;fill:black" points="90,62.3538290724796 86.4000000074612,68.5892119754198 79.2000000149225,68.589211988343 75.6,62.3538290983261 79.199999970155,56.1184461824626 86.3999999626938,56.1184461436929"></polygon>
<polygon id="173" style="opacity:0.2;fill:black" points="90,74.8245948869755 86.4000000074612,81.0599777899157 79.2000000149225,81.059977802839 75.6,74.824594912822 79.199999970155,68.5892119969586 86.3999999626938,68.5892119581888"></polygon>
<polygon id="174" style="opacity:0.2;fill:black" points="90,87.2953607014714 86.4000000074612,93.5307436044116 79.2000000149225,93.5307436173349 75.6,87.2953607273179 79.199999970155,81.0599778114545 86.3999999626938,81.0599777726847"></polygon>
<polygon id="175" style="opacity:0.2;fill:black" points="90,99.7661265159673 86.4000000074612,106.001509418908 79.2000000149225,106.001509431831 75.6,99.7661265418138 79.199999970155,93.5307436259504 86.3999999626938,93.5307435871806"></polygon>
<polygon id="176" style="opacity:0.2;fill:black" points="90,112.236892330463 86.4000000074612,118.472275233403 79.2000000149225,118.472275246327 75.6,112.23689235631 79.199999970155,106.001509440446 86.3999999626938,106.001509401677"></polygon>
<polygon id="177" style="opacity:0.2;fill:black" points="90,124.707658144959 86.4000000074612,130.943041047899 79.2000000149225,130.943041060823 75.6,124.707658170806 79.199999970155,118.472275254942 86.3999999626938,118.472275216172"></polygon>




<polygon id="196" style="opacity:0.2;fill:black" points="100.8,56.1184461652316 97.2000000074613,62.3538290681718 90.0000000149225,62.3538290810951 86.4,56.1184461910781 89.999999970155,49.8830632752147 97.1999999626938,49.8830632364449"></polygon>
<polygon id="197" style="opacity:0.2;fill:black" points="100.8,68.5892119797275 97.2000000074613,74.8245948826677 90.0000000149225,74.824594895591 86.4,68.589212005574 89.999999970155,62.3538290897106 97.1999999626938,62.3538290509408"></polygon>
<polygon id="198" style="opacity:0.2;fill:black" points="100.8,81.0599777942235 97.2000000074613,87.2953606971637 90.0000000149225,87.2953607100869 86.4,81.05997782007 89.999999970155,74.8245949042065 97.1999999626938,74.8245948654367"></polygon>
<polygon id="199" style="opacity:0.2;fill:black" points="100.8,93.5307436087194 97.2000000074613,99.7661265116596 90.0000000149225,99.7661265245828 86.4,93.5307436345659 89.999999970155,87.2953607187024 97.1999999626938,87.2953606799326"></polygon>
<polygon id="200" style="opacity:0.2;fill:black" points="100.8,106.001509423215 97.2000000074613,112.236892326155 90.0000000149225,112.236892339079 86.4,106.001509449062 89.999999970155,99.7661265331983 97.1999999626938,99.7661264944286"></polygon>
<polygon id="201" style="opacity:0.2;fill:black" points="100.8,118.472275237711 97.2000000074613,124.707658140651 90.0000000149225,124.707658153575 86.4,118.472275263558 89.999999970155,112.236892347694 97.1999999626938,112.236892308924"></polygon>




<polygon id="220" style="opacity:0.2;fill:black" points="111.6,62.3538290724796 108.000000007461,68.5892119754198 100.800000014922,68.589211988343 97.2,62.3538290983261 100.799999970155,56.1184461824626 107.999999962694,56.1184461436929"></polygon>
<polygon id="221" style="opacity:0.2;fill:black" points="111.6,74.8245948869755 108.000000007461,81.0599777899157 100.800000014922,81.059977802839 97.2,74.824594912822 100.799999970155,68.5892119969586 107.999999962694,68.5892119581888"></polygon>
<polygon id="222" style="opacity:0.2;fill:black" points="111.6,87.2953607014714 108.000000007461,93.5307436044116 100.800000014922,93.5307436173349 97.2,87.2953607273179 100.799999970155,81.0599778114545 107.999999962694,81.0599777726847"></polygon>
<polygon id="223" style="opacity:0.2;fill:black" points="111.6,99.7661265159673 108.000000007461,106.001509418908 100.800000014922,106.001509431831 97.2,99.7661265418138 100.799999970155,93.5307436259504 107.999999962694,93.5307435871806"></polygon>
<polygon id="224" style="opacity:0.2;fill:black" points="111.6,112.236892330463 108.000000007461,118.472275233403 100.800000014922,118.472275246327 97.2,112.23689235631 100.799999970155,106.001509440446 107.999999962694,106.001509401677"></polygon>
<polygon id="225" style="opacity:0.2;fill:black" points="111.6,124.707658144959 108.000000007461,130.943041047899 100.800000014922,130.943041060823 97.2,124.707658170806 100.799999970155,118.472275254942 107.999999962694,118.472275216172"></polygon>





<polygon id="245" style="opacity:0.2;fill:black" points="122.4,68.5892119797275 118.800000007461,74.8245948826677 111.600000014922,74.824594895591 108,68.589212005574 111.599999970155,62.3538290897106 118.799999962694,62.3538290509408"></polygon>
<polygon id="246" style="opacity:0.2;fill:black" points="122.4,81.0599777942235 118.800000007461,87.2953606971637 111.600000014922,87.2953607100869 108,81.05997782007 111.599999970155,74.8245949042065 118.799999962694,74.8245948654367"></polygon>
<polygon id="247" style="opacity:0.2;fill:black" points="122.4,93.5307436087194 118.800000007461,99.7661265116596 111.600000014922,99.7661265245828 108,93.5307436345659 111.599999970155,87.2953607187024 118.799999962694,87.2953606799326"></polygon>
<polygon id="248" style="opacity:0.2;fill:black" points="122.4,106.001509423215 118.800000007461,112.236892326155 111.600000014922,112.236892339079 108,106.001509449062 111.599999970155,99.7661265331983 118.799999962694,99.7661264944286"></polygon>
<polygon id="249" style="opacity:0.2;fill:black" points="122.4,118.472275237711 118.800000007461,124.707658140651 111.600000014922,124.707658153575 108,118.472275263558 111.599999970155,112.236892347694 118.799999962694,112.236892308924"></polygon>

<polygon id="265" style="opacity:0.2;fill:black" points="133.2,24.9415316289918 129.600000007461,31.176914531932 122.400000014922,31.1769145448553 118.8,24.9415316548383 122.399999970155,18.7061487389749 129.599999962694,18.7061487002051"></polygon>
<polygon id="266" style="opacity:0.2;fill:black" points="133.2,37.4122974434878 129.600000007461,43.647680346428 122.400000014922,43.6476803593512 118.8,37.4122974693343 122.399999970155,31.1769145534708 129.599999962694,31.176914514701"></polygon>

<polygon id="268" style="opacity:0.2;fill:black" points="133.2,62.3538290724796 129.600000007461,68.5892119754198 122.400000014922,68.589211988343 118.8,62.3538290983261 122.399999970155,56.1184461824626 129.599999962694,56.1184461436929"></polygon>
<polygon id="269" style="opacity:0.2;fill:black" points="133.2,74.8245948869755 129.600000007461,81.0599777899157 122.400000014922,81.059977802839 118.8,74.824594912822 122.399999970155,68.5892119969586 129.599999962694,68.5892119581888"></polygon>
<polygon id="270" style="opacity:0.2;fill:black" points="133.2,87.2953607014714 129.600000007461,93.5307436044116 122.400000014922,93.5307436173349 118.8,87.2953607273179 122.399999970155,81.0599778114545 129.599999962694,81.0599777726847"></polygon>
<polygon id="271" style="opacity:0.2;fill:black" points="133.2,99.7661265159673 129.600000007461,106.001509418908 122.400000014922,106.001509431831 118.8,99.7661265418138 122.399999970155,93.5307436259504 129.599999962694,93.5307435871806"></polygon>
<polygon id="272" style="opacity:0.2;fill:black" points="133.2,112.236892330463 129.600000007461,118.472275233403 122.400000014922,118.472275246327 118.8,112.23689235631 122.399999970155,106.001509440446 129.599999962694,106.001509401677"></polygon>
<polygon id="273" style="opacity:0.2;fill:black" points="133.2,124.707658144959 129.600000007461,130.943041047899 122.400000014922,130.943041060823 118.8,124.707658170806 122.399999970155,118.472275254942 129.599999962694,118.472275216172"></polygon>

<polygon id="289" style="opacity:0.2;fill:black" points="144,18.7061487217439 140.400000007461,24.9415316246841 133.200000014922,24.9415316376073 129.6,18.7061487475904 133.199999970155,12.4707658317269 140.399999962694,12.4707657929572"></polygon>
<polygon id="290" style="opacity:0.2;fill:black" points="144,31.1769145362398 140.400000007461,37.41229743918 133.200000014922,37.4122974521032 129.6,31.1769145620863 133.199999970155,24.9415316462228 140.399999962694,24.9415316074531"></polygon>
<polygon id="291" style="opacity:0.2;fill:black" points="144,43.6476803507357 140.400000007461,49.8830632536759 133.200000014922,49.8830632665992 129.6,43.6476803765822 133.199999970155,37.4122974607188 140.399999962694,37.412297421949"></polygon>
<polygon id="292" style="opacity:0.2;fill:black" points="144,56.1184461652316 140.400000007461,62.3538290681718 133.200000014922,62.3538290810951 129.6,56.1184461910781 133.199999970155,49.8830632752147 140.399999962694,49.8830632364449"></polygon>
<polygon id="293" style="opacity:0.2;fill:black" points="144,68.5892119797275 140.400000007461,74.8245948826677 133.200000014922,74.824594895591 129.6,68.589212005574 133.199999970155,62.3538290897106 140.399999962694,62.3538290509408"></polygon>
<polygon id="294" style="opacity:0.2;fill:black" points="144,81.0599777942235 140.400000007461,87.2953606971637 133.200000014922,87.2953607100869 129.6,81.05997782007 133.199999970155,74.8245949042065 140.399999962694,74.8245948654367"></polygon>
<polygon id="295" style="opacity:0.2;fill:black" points="144,93.5307436087194 140.400000007461,99.7661265116596 133.200000014922,99.7661265245828 129.6,93.5307436345659 133.199999970155,87.2953607187024 140.399999962694,87.2953606799326"></polygon>
<polygon id="296" style="opacity:0.2;fill:black" points="144,106.001509423215 140.400000007461,112.236892326155 133.200000014922,112.236892339079 129.6,106.001509449062 133.199999970155,99.7661265331983 140.399999962694,99.7661264944286"></polygon>
<polygon id="297" style="opacity:0.2;fill:black" points="144,118.472275237711 140.400000007461,124.707658140651 133.200000014922,124.707658153575 129.6,118.472275263558 133.199999970155,112.236892347694 140.399999962694,112.236892308924"></polygon>

<polygon id="313" style="opacity:0.2;fill:black" points="154.8,24.9415316289918 151.200000007461,31.176914531932 144.000000014922,31.1769145448553 140.4,24.9415316548383 143.999999970155,18.7061487389749 151.199999962694,18.7061487002051"></polygon>
<polygon id="314" style="opacity:0.2;fill:black" points="154.8,37.4122974434878 151.200000007461,43.647680346428 144.000000014922,43.6476803593512 140.4,37.4122974693343 143.999999970155,31.1769145534708 151.199999962694,31.176914514701"></polygon>
<polygon id="315" style="opacity:0.2;fill:black" points="154.8,49.8830632579837 151.200000007461,56.1184461609239 144.000000014922,56.1184461738471 140.4,49.8830632838302 143.999999970155,43.6476803679667 151.199999962694,43.6476803291969"></polygon>
<polygon id="316" style="opacity:0.2;fill:black" points="154.8,62.3538290724796 151.200000007461,68.5892119754198 144.000000014922,68.589211988343 140.4,62.3538290983261 143.999999970155,56.1184461824626 151.199999962694,56.1184461436929"></polygon>
<polygon id="317" style="opacity:0.2;fill:black" points="154.8,74.8245948869755 151.200000007461,81.0599777899157 144.000000014922,81.059977802839 140.4,74.824594912822 143.999999970155,68.5892119969586 151.199999962694,68.5892119581888"></polygon>
<polygon id="318" style="opacity:0.2;fill:black" points="154.8,87.2953607014714 151.200000007461,93.5307436044116 144.000000014922,93.5307436173349 140.4,87.2953607273179 143.999999970155,81.0599778114545 151.199999962694,81.0599777726847"></polygon>
<polygon id="319" style="opacity:0.2;fill:black" points="154.8,99.7661265159673 151.200000007461,106.001509418908 144.000000014922,106.001509431831 140.4,99.7661265418138 143.999999970155,93.5307436259504 151.199999962694,93.5307435871806"></polygon>
<polygon id="320" style="opacity:0.2;fill:black" points="154.8,112.236892330463 151.200000007461,118.472275233403 144.000000014922,118.472275246327 140.4,112.23689235631 143.999999970155,106.001509440446 151.199999962694,106.001509401677"></polygon>
<polygon id="321" style="opacity:0.2;fill:black" points="154.8,124.707658144959 151.200000007461,130.943041047899 144.000000014922,130.943041060823 140.4,124.707658170806 143.999999970155,118.472275254942 151.199999962694,118.472275216172"></polygon>

<polygon id="337" style="opacity:0.2;fill:black" points="165.6,18.7061487217439 162.000000007461,24.9415316246841 154.800000014922,24.9415316376073 151.2,18.7061487475904 154.799999970155,12.4707658317269 161.999999962694,12.4707657929572"></polygon>
<polygon id="338" style="opacity:0.2;fill:black" points="165.6,31.1769145362398 162.000000007461,37.41229743918 154.800000014922,37.4122974521032 151.2,31.1769145620863 154.799999970155,24.9415316462228 161.999999962694,24.9415316074531"></polygon>
<polygon id="339" style="opacity:0.2;fill:black" points="165.6,43.6476803507357 162.000000007461,49.8830632536759 154.800000014922,49.8830632665992 151.2,43.6476803765822 154.799999970155,37.4122974607188 161.999999962694,37.412297421949"></polygon>
<polygon id="340" style="opacity:0.2;fill:black" points="165.6,56.1184461652316 162.000000007461,62.3538290681718 154.800000014922,62.3538290810951 151.2,56.1184461910781 154.799999970155,49.8830632752147 161.999999962694,49.8830632364449"></polygon>
<polygon id="341" style="opacity:0.2;fill:black" points="165.6,68.5892119797275 162.000000007461,74.8245948826677 154.800000014922,74.824594895591 151.2,68.589212005574 154.799999970155,62.3538290897106 161.999999962694,62.3538290509408"></polygon>
<polygon id="342" style="opacity:0.2;fill:black" points="165.6,81.0599777942235 162.000000007461,87.2953606971637 154.800000014922,87.2953607100869 151.2,81.05997782007 154.799999970155,74.8245949042065 161.999999962694,74.8245948654367"></polygon>
<polygon id="343" style="opacity:0.2;fill:black" points="165.6,93.5307436087194 162.000000007461,99.7661265116596 154.800000014922,99.7661265245828 151.2,93.5307436345659 154.799999970155,87.2953607187024 161.999999962694,87.2953606799326"></polygon>
<polygon id="344" style="opacity:0.2;fill:black" points="165.6,106.001509423215 162.000000007461,112.236892326155 154.800000014922,112.236892339079 151.2,106.001509449062 154.799999970155,99.7661265331983 161.999999962694,99.7661264944286"></polygon>
<polygon id="345" style="opacity:0.2;fill:black" points="165.6,118.472275237711 162.000000007461,124.707658140651 154.800000014922,124.707658153575 151.2,118.472275263558 154.799999970155,112.236892347694 161.999999962694,112.236892308924"></polygon>

<polygon id="361" style="opacity:0.2;fill:black" points="176.4,24.9415316289918 172.800000007461,31.176914531932 165.600000014923,31.1769145448553 162,24.9415316548383 165.599999970155,18.7061487389749 172.799999962694,18.7061487002051"></polygon>
<polygon id="362" style="opacity:0.2;fill:black" points="176.4,37.4122974434878 172.800000007461,43.647680346428 165.600000014923,43.6476803593512 162,37.4122974693343 165.599999970155,31.1769145534708 172.799999962694,31.176914514701"></polygon>
<polygon id="363" style="opacity:0.2;fill:black" points="176.4,49.8830632579837 172.800000007461,56.1184461609239 165.600000014923,56.1184461738471 162,49.8830632838302 165.599999970155,43.6476803679667 172.799999962694,43.6476803291969"></polygon>
<polygon id="364" style="opacity:0.2;fill:black" points="176.4,62.3538290724796 172.800000007461,68.5892119754198 165.600000014923,68.589211988343 162,62.3538290983261 165.599999970155,56.1184461824626 172.799999962694,56.1184461436929"></polygon>
<polygon id="365" style="opacity:0.2;fill:black" points="176.4,74.8245948869755 172.800000007461,81.0599777899157 165.600000014923,81.059977802839 162,74.824594912822 165.599999970155,68.5892119969586 172.799999962694,68.5892119581888"></polygon>
<polygon id="366" style="opacity:0.2;fill:black" points="176.4,87.2953607014714 172.800000007461,93.5307436044116 165.600000014923,93.5307436173349 162,87.2953607273179 165.599999970155,81.0599778114545 172.799999962694,81.0599777726847"></polygon>
<polygon id="367" style="opacity:0.2;fill:black" points="176.4,99.7661265159673 172.800000007461,106.001509418908 165.600000014923,106.001509431831 162,99.7661265418138 165.599999970155,93.5307436259504 172.799999962694,93.5307435871806"></polygon>
<polygon id="368" style="opacity:0.2;fill:black" points="176.4,112.236892330463 172.800000007461,118.472275233403 165.600000014923,118.472275246327 162,112.23689235631 165.599999970155,106.001509440446 172.799999962694,106.001509401677"></polygon>
<polygon id="369" style="opacity:0.2;fill:black" points="176.4,124.707658144959 172.800000007461,130.943041047899 165.600000014923,130.943041060823 162,124.707658170806 165.599999970155,118.472275254942 172.799999962694,118.472275216172"></polygon>


<polygon id="386" style="opacity:0.2;fill:black" points="187.2,31.1769145362398 183.600000007461,37.41229743918 176.400000014922,37.4122974521032 172.8,31.1769145620863 176.399999970155,24.9415316462228 183.599999962694,24.9415316074531"></polygon>
<polygon id="387" style="opacity:0.2;fill:black" points="187.2,43.6476803507357 183.600000007461,49.8830632536759 176.400000014922,49.8830632665992 172.8,43.6476803765822 176.399999970155,37.4122974607188 183.599999962694,37.412297421949"></polygon>
<polygon id="388" style="opacity:0.2;fill:black" points="187.2,56.1184461652316 183.600000007461,62.3538290681718 176.400000014922,62.3538290810951 172.8,56.1184461910781 176.399999970155,49.8830632752147 183.599999962694,49.8830632364449"></polygon>
<polygon id="389" style="opacity:0.2;fill:black" points="187.2,68.5892119797275 183.600000007461,74.8245948826677 176.400000014922,74.824594895591 172.8,68.589212005574 176.399999970155,62.3538290897106 183.599999962694,62.3538290509408"></polygon>
<polygon id="390" style="opacity:0.2;fill:black" points="187.2,81.0599777942235 183.600000007461,87.2953606971637 176.400000014922,87.2953607100869 172.8,81.05997782007 176.399999970155,74.8245949042065 183.599999962694,74.8245948654367"></polygon>
<polygon id="391" style="opacity:0.2;fill:black" points="187.2,93.5307436087194 183.600000007461,99.7661265116596 176.400000014922,99.7661265245828 172.8,93.5307436345659 176.399999970155,87.2953607187024 183.599999962694,87.2953606799326"></polygon>
<polygon id="392" style="opacity:0.2;fill:black" points="187.2,106.001509423215 183.600000007461,112.236892326155 176.400000014922,112.236892339079 172.8,106.001509449062 176.399999970155,99.7661265331983 183.599999962694,99.7661264944286"></polygon>
<polygon id="393" style="opacity:0.2;fill:black" points="187.2,118.472275237711 183.600000007461,124.707658140651 176.400000014922,124.707658153575 172.8,118.472275263558 176.399999970155,112.236892347694 183.599999962694,112.236892308924"></polygon>



<polygon id="411" style="opacity:0.2;fill:black" points="198,49.8830632579837 194.400000007461,56.1184461609239 187.200000014922,56.1184461738471 183.6,49.8830632838302 187.199999970155,43.6476803679667 194.399999962694,43.6476803291969"></polygon>
<polygon id="412" style="opacity:0.2;fill:black" points="198,62.3538290724796 194.400000007461,68.5892119754198 187.200000014922,68.589211988343 183.6,62.3538290983261 187.199999970155,56.1184461824626 194.399999962694,56.1184461436929"></polygon>
<polygon id="413" style="opacity:0.2;fill:black" points="198,74.8245948869755 194.400000007461,81.0599777899157 187.200000014922,81.059977802839 183.6,74.824594912822 187.199999970155,68.5892119969586 194.399999962694,68.5892119581888"></polygon>
<polygon id="414" style="opacity:0.2;fill:black" points="198,87.2953607014714 194.400000007461,93.5307436044116 187.200000014922,93.5307436173349 183.6,87.2953607273179 187.199999970155,81.0599778114545 194.399999962694,81.0599777726847"></polygon>
<polygon id="415" style="opacity:0.2;fill:black" points="198,99.7661265159673 194.400000007461,106.001509418908 187.200000014922,106.001509431831 183.6,99.7661265418138 187.199999970155,93.5307436259504 194.399999962694,93.5307435871806"></polygon>
<polygon id="416" style="opacity:0.2;fill:black" points="198,112.236892330463 194.400000007461,118.472275233403 187.200000014922,118.472275246327 183.6,112.23689235631 187.199999970155,106.001509440446 194.399999962694,106.001509401677"></polygon>
<polygon id="417" style="opacity:0.2;fill:black" points="198,124.707658144959 194.400000007461,130.943041047899 187.200000014922,130.943041060823 183.6,124.707658170806 187.199999970155,118.472275254942 194.399999962694,118.472275216172"></polygon>




<polygon id="436" style="opacity:0.2;fill:black" points="208.8,56.1184461652316 205.200000007461,62.3538290681718 198.000000014922,62.3538290810951 194.4,56.1184461910781 197.999999970155,49.8830632752147 205.199999962694,49.8830632364449"></polygon>
<polygon id="437" style="opacity:0.2;fill:black" points="208.8,68.5892119797275 205.200000007461,74.8245948826677 198.000000014922,74.824594895591 194.4,68.589212005574 197.999999970155,62.3538290897106 205.199999962694,62.3538290509408"></polygon>
<polygon id="438" style="opacity:0.2;fill:black" points="208.8,81.0599777942235 205.200000007461,87.2953606971637 198.000000014922,87.2953607100869 194.4,81.05997782007 197.999999970155,74.8245949042065 205.199999962694,74.8245948654367"></polygon>
<polygon id="439" style="opacity:0.2;fill:black" points="208.8,93.5307436087194 205.200000007461,99.7661265116596 198.000000014922,99.7661265245828 194.4,93.5307436345659 197.999999970155,87.2953607187024 205.199999962694,87.2953606799326"></polygon>
<polygon id="440" style="opacity:0.2;fill:black" points="208.8,106.001509423215 205.200000007461,112.236892326155 198.000000014922,112.236892339079 194.4,106.001509449062 197.999999970155,99.7661265331983 205.199999962694,99.7661264944286"></polygon>
<polygon id="441" style="opacity:0.2;fill:black" points="208.8,118.472275237711 205.200000007461,124.707658140651 198.000000014922,124.707658153575 194.4,118.472275263558 197.999999970155,112.236892347694 205.199999962694,112.236892308924"></polygon>




<polygon id="460" style="opacity:0.2;fill:black" points="219.6,62.3538290724796 216.000000007461,68.5892119754198 208.800000014922,68.589211988343 205.2,62.3538290983261 208.799999970155,56.1184461824626 215.999999962694,56.1184461436929"></polygon>
<polygon id="461" style="opacity:0.2;fill:black" points="219.6,74.8245948869755 216.000000007461,81.0599777899157 208.800000014922,81.059977802839 205.2,74.824594912822 208.799999970155,68.5892119969586 215.999999962694,68.5892119581888"></polygon>
<polygon id="462" style="opacity:0.2;fill:black" points="219.6,87.2953607014714 216.000000007461,93.5307436044116 208.800000014922,93.5307436173349 205.2,87.2953607273179 208.799999970155,81.0599778114545 215.999999962694,81.0599777726847"></polygon>
<polygon id="463" style="opacity:0.2;fill:black" points="219.6,99.7661265159673 216.000000007461,106.001509418908 208.800000014922,106.001509431831 205.2,99.7661265418138 208.799999970155,93.5307436259504 215.999999962694,93.5307435871806"></polygon>
<polygon id="464" style="opacity:0.2;fill:black" points="219.6,112.236892330463 216.000000007461,118.472275233403 208.800000014922,118.472275246327 205.2,112.23689235631 208.799999970155,106.001509440446 215.999999962694,106.001509401677"></polygon>
<polygon id="465" style="opacity:0.2;fill:black" points="219.6,124.707658144959 216.000000007461,130.943041047899 208.800000014922,130.943041060823 205.2,124.707658170806 208.799999970155,118.472275254942 215.999999962694,118.472275216172"></polygon>





<polygon id="485" style="opacity:0.2;fill:black" points="230.4,68.5892119797275 226.800000007461,74.8245948826677 219.600000014923,74.824594895591 216,68.589212005574 219.599999970155,62.3538290897106 226.799999962694,62.3538290509408"></polygon>
<polygon id="486" style="opacity:0.2;fill:black" points="230.4,81.0599777942235 226.800000007461,87.2953606971637 219.600000014923,87.2953607100869 216,81.05997782007 219.599999970155,74.8245949042065 226.799999962694,74.8245948654367"></polygon>
<polygon id="487" style="opacity:0.2;fill:black" points="230.4,93.5307436087194 226.800000007461,99.7661265116596 219.600000014923,99.7661265245828 216,93.5307436345659 219.599999970155,87.2953607187024 226.799999962694,87.2953606799326"></polygon>
<polygon id="488" style="opacity:0.2;fill:black" points="230.4,106.001509423215 226.800000007461,112.236892326155 219.600000014923,112.236892339079 216,106.001509449062 219.599999970155,99.7661265331983 226.799999962694,99.7661264944286"></polygon>
<polygon id="489" style="opacity:0.2;fill:black" points="230.4,118.472275237711 226.800000007461,124.707658140651 219.600000014923,124.707658153575 216,118.472275263558 219.599999970155,112.236892347694 226.799999962694,112.236892308924"></polygon>




<polygon id="508" style="opacity:0.2;fill:black" points="241.2,62.3538290724796 237.600000007461,68.5892119754198 230.400000014922,68.589211988343 226.8,62.3538290983261 230.399999970155,56.1184461824626 237.599999962694,56.1184461436929"></polygon>
<polygon id="509" style="opacity:0.2;fill:black" points="241.2,74.8245948869755 237.600000007461,81.0599777899157 230.400000014922,81.059977802839 226.8,74.824594912822 230.399999970155,68.5892119969586 237.599999962694,68.5892119581888"></polygon>
<polygon id="510" style="opacity:0.2;fill:black" points="241.2,87.2953607014714 237.600000007461,93.5307436044116 230.400000014922,93.5307436173349 226.8,87.2953607273179 230.399999970155,81.0599778114545 237.599999962694,81.0599777726847"></polygon>
<polygon id="511" style="opacity:0.2;fill:black" points="241.2,99.7661265159673 237.600000007461,106.001509418908 230.400000014922,106.001509431831 226.8,99.7661265418138 230.399999970155,93.5307436259504 237.599999962694,93.5307435871806"></polygon>
<polygon id="512" style="opacity:0.2;fill:black" points="241.2,112.236892330463 237.600000007461,118.472275233403 230.400000014922,118.472275246327 226.8,112.23689235631 230.399999970155,106.001509440446 237.599999962694,106.001509401677"></polygon>
<polygon id="513" style="opacity:0.2;fill:black" points="241.2,124.707658144959 237.600000007461,130.943041047899 230.400000014922,130.943041060823 226.8,124.707658170806 230.399999970155,118.472275254942 237.599999962694,118.472275216172"></polygon>




<polygon id="532" style="opacity:0.2;fill:black" points="252,56.1184461652316 248.400000007461,62.3538290681718 241.200000014922,62.3538290810951 237.6,56.1184461910781 241.199999970155,49.8830632752147 248.399999962694,49.8830632364449"></polygon>
<polygon id="533" style="opacity:0.2;fill:black" points="252,68.5892119797275 248.400000007461,74.8245948826677 241.200000014922,74.824594895591 237.6,68.589212005574 241.199999970155,62.3538290897106 248.399999962694,62.3538290509408"></polygon>
<polygon id="534" style="opacity:0.2;fill:black" points="252,81.0599777942235 248.400000007461,87.2953606971637 241.200000014922,87.2953607100869 237.6,81.05997782007 241.199999970155,74.8245949042065 248.399999962694,74.8245948654367"></polygon>
<polygon id="535" style="opacity:0.2;fill:black" points="252,93.5307436087194 248.400000007461,99.7661265116596 241.200000014922,99.7661265245828 237.6,93.5307436345659 241.199999970155,87.2953607187024 248.399999962694,87.2953606799326"></polygon>
<polygon id="536" style="opacity:0.2;fill:black" points="252,106.001509423215 248.400000007461,112.236892326155 241.200000014922,112.236892339079 237.6,106.001509449062 241.199999970155,99.7661265331983 248.399999962694,99.7661264944286"></polygon>
<polygon id="537" style="opacity:0.2;fill:black" points="252,118.472275237711 248.400000007461,124.707658140651 241.200000014922,124.707658153575 237.6,118.472275263558 241.199999970155,112.236892347694 248.399999962694,112.236892308924"></polygon>



<polygon id="555" style="opacity:0.2;fill:black" points="262.8,49.8830632579837 259.200000007461,56.1184461609239 252.000000014922,56.1184461738471 248.4,49.8830632838302 251.999999970155,43.6476803679667 259.199999962694,43.6476803291969"></polygon>
<polygon id="556" style="opacity:0.2;fill:black" points="262.8,62.3538290724796 259.200000007461,68.5892119754198 252.000000014922,68.589211988343 248.4,62.3538290983261 251.999999970155,56.1184461824626 259.199999962694,56.1184461436929"></polygon>
<polygon id="557" style="opacity:0.2;fill:black" points="262.8,74.8245948869755 259.200000007461,81.0599777899157 252.000000014922,81.059977802839 248.4,74.824594912822 251.999999970155,68.5892119969586 259.199999962694,68.5892119581888"></polygon>
<polygon id="558" style="opacity:0.2;fill:black" points="262.8,87.2953607014714 259.200000007461,93.5307436044116 252.000000014922,93.5307436173349 248.4,87.2953607273179 251.999999970155,81.0599778114545 259.199999962694,81.0599777726847"></polygon>
<polygon id="559" style="opacity:0.2;fill:black" points="262.8,99.7661265159673 259.200000007461,106.001509418908 252.000000014922,106.001509431831 248.4,99.7661265418138 251.999999970155,93.5307436259504 259.199999962694,93.5307435871806"></polygon>
<polygon id="560" style="opacity:0.2;fill:black" points="262.8,112.236892330463 259.200000007461,118.472275233403 252.000000014922,118.472275246327 248.4,112.23689235631 251.999999970155,106.001509440446 259.199999962694,106.001509401677"></polygon>
<polygon id="561" style="opacity:0.2;fill:black" points="262.8,124.707658144959 259.200000007461,130.943041047899 252.000000014922,130.943041060823 248.4,124.707658170806 251.999999970155,118.472275254942 259.199999962694,118.472275216172"></polygon>
</g>
</svg>
