<?xml version="1.0" standalone="no"?>
<!DOCTYPE svg PUBLIC "-//W3C//DTD SVG 1.1//EN" "http://www.w3.org/Graphics/SVG/1.1/DTD/svg11.dtd">
<svg width="100%" height="100%" viewBox="0 0 576 811.599777942234" xmlns="http://www.w3.org/2000/svg" version="1.1">
<desc>Hex grid</desc>
<g id="hexes">
<polygon id="0" class="hexy" points="144,62.3538290724796 108.000000074612,124.707658101882 36.0000001492249,124.707658231114 0,62.3538293309447 35.9999997015502,1.72310052448665e-07 107.999999626938,-2.15387579771686e-07"/>
<polygon id="1" class="hexy" points="144,187.061487217439 108.000000074612,249.415316246841 36.0000001492249,249.415316376073 0,187.061487475904 35.9999997015502,124.707658317269 107.999999626938,124.707657929572"/>
<polygon id="2" class="hexy" points="144,311.769145362398 108.000000074612,374.1229743918 36.0000001492249,374.122974521033 0,311.769145620863 35.9999997015502,249.415316462228 107.999999626938,249.415316074531"/>
<polygon id="3" class="hexy" points="144,436.476803507357 108.000000074612,498.830632536759 36.0000001492249,498.830632665992 0,436.476803765822 35.9999997015502,374.122974607188 107.999999626938,374.12297421949"/>
<polygon id="4" class="hexy" points="144,561.184461652316 108.000000074612,623.538290681718 36.0000001492249,623.538290810951 0,561.184461910781 35.9999997015502,498.830632752147 107.999999626938,498.830632364449"/>
<polygon id="5" class="hexy" points="144,685.892119797275 108.000000074612,748.245948826677 36.0000001492249,748.24594895591 0,685.89212005574 35.9999997015502,623.538290897106 107.999999626938,623.538290509408"/>
<polygon id="5" class="hexy" points="252,124.707658144959 216.000000074612,187.061487174361 144.000000149225,187.061487303594 108,124.707658403424 143.99999970155,62.3538292447896 215.999999626938,62.353828857092"/>
<polygon id="6" class="hexy" points="252,249.415316289918 216.000000074612,311.76914531932 144.000000149225,311.769145448553 108,249.415316548383 143.99999970155,187.061487389749 215.999999626938,187.061487002051"/>
<polygon id="7" class="hexy" points="252,374.122974434877 216.000000074612,436.476803464279 144.000000149225,436.476803593512 108,374.122974693343 143.99999970155,311.769145534708 215.999999626938,311.76914514701"/>
<polygon id="8" class="hexy" points="252,498.830632579837 216.000000074612,561.184461609239 144.000000149225,561.184461738471 108,498.830632838302 143.99999970155,436.476803679667 215.999999626938,436.476803291969"/>
<polygon id="9" class="hexy" points="252,623.538290724796 216.000000074612,685.892119754198 144.000000149225,685.89211988343 108,623.538290983261 143.99999970155,561.184461824626 215.999999626938,561.184461436929"/>
<polygon id="10" class="hexy" points="252,748.245948869755 216.000000074612,810.599777899157 144.000000149225,810.59977802839 108,748.24594912822 143.99999970155,685.892119969585 215.999999626938,685.892119581888"/>
<polygon id="10" class="hexy" points="360,62.3538290724796 324.000000074612,124.707658101882 252.000000149225,124.707658231114 216,62.3538293309447 251.99999970155,1.72310052448665e-07 323.999999626938,-2.15387579771686e-07"/>
<polygon id="11" class="hexy" points="360,187.061487217439 324.000000074612,249.415316246841 252.000000149225,249.415316376073 216,187.061487475904 251.99999970155,124.707658317269 323.999999626938,124.707657929572"/>
<polygon id="12" class="hexy" points="360,311.769145362398 324.000000074612,374.1229743918 252.000000149225,374.122974521033 216,311.769145620863 251.99999970155,249.415316462228 323.999999626938,249.415316074531"/>
<polygon id="13" class="hexy" points="360,436.476803507357 324.000000074612,498.830632536759 252.000000149225,498.830632665992 216,436.476803765822 251.99999970155,374.122974607188 323.999999626938,374.12297421949"/>
<polygon id="14" class="hexy" points="360,561.184461652316 324.000000074612,623.538290681718 252.000000149225,623.538290810951 216,561.184461910781 251.99999970155,498.830632752147 323.999999626938,498.830632364449"/>
<polygon id="15" class="hexy" points="360,685.892119797275 324.000000074612,748.245948826677 252.000000149225,748.24594895591 216,685.89212005574 251.99999970155,623.538290897106 323.999999626938,623.538290509408"/>
<polygon id="15" class="hexy" points="468,124.707658144959 432.000000074612,187.061487174361 360.000000149225,187.061487303594 324,124.707658403424 359.99999970155,62.3538292447896 431.999999626938,62.353828857092"/>
<polygon id="16" class="hexy" points="468,249.415316289918 432.000000074612,311.76914531932 360.000000149225,311.769145448553 324,249.415316548383 359.99999970155,187.061487389749 431.999999626938,187.061487002051"/>
<polygon id="17" class="hexy" points="468,374.122974434877 432.000000074612,436.476803464279 360.000000149225,436.476803593512 324,374.122974693343 359.99999970155,311.769145534708 431.999999626938,311.76914514701"/>
<polygon id="18" class="hexy" points="468,498.830632579837 432.000000074612,561.184461609239 360.000000149225,561.184461738471 324,498.830632838302 359.99999970155,436.476803679667 431.999999626938,436.476803291969"/>
<polygon id="19" class="hexy" points="468,623.538290724796 432.000000074612,685.892119754198 360.000000149225,685.89211988343 324,623.538290983261 359.99999970155,561.184461824626 431.999999626938,561.184461436929"/>
<polygon id="20" class="hexy" points="468,748.245948869755 432.000000074612,810.599777899157 360.000000149225,810.59977802839 324,748.24594912822 359.99999970155,685.892119969585 431.999999626938,685.892119581888"/>
<polygon id="20" class="hexy" points="576,62.3538290724796 540.000000074612,124.707658101882 468.000000149225,124.707658231114 432,62.3538293309447 467.99999970155,1.72310052448665e-07 539.999999626938,-2.15387579771686e-07"/>
<polygon id="21" class="hexy" points="576,187.061487217439 540.000000074612,249.415316246841 468.000000149225,249.415316376073 432,187.061487475904 467.99999970155,124.707658317269 539.999999626938,124.707657929572"/>
<polygon id="22" class="hexy" points="576,311.769145362398 540.000000074612,374.1229743918 468.000000149225,374.122974521033 432,311.769145620863 467.99999970155,249.415316462228 539.999999626938,249.415316074531"/>
<polygon id="23" class="hexy" points="576,436.476803507357 540.000000074612,498.830632536759 468.000000149225,498.830632665992 432,436.476803765822 467.99999970155,374.122974607188 539.999999626938,374.12297421949"/>
<polygon id="24" class="hexy" points="576,561.184461652316 540.000000074612,623.538290681718 468.000000149225,623.538290810951 432,561.184461910781 467.99999970155,498.830632752147 539.999999626938,498.830632364449"/>
<polygon id="25" class="hexy" points="576,685.892119797275 540.000000074612,748.245948826677 468.000000149225,748.24594895591 432,685.89212005574 467.99999970155,623.538290897106 539.999999626938,623.538290509408"/>
</g>
</svg>
