<?xml version="1.0" standalone="no"?>
<!DOCTYPE svg PUBLIC "-//W3C//DTD SVG 1.1//EN" "http://www.w3.org/Graphics/SVG/1.1/DTD/svg11.dtd">
<svg width="100%" height="100%" viewBox="0 0 79.2 82.0599777942235" xmlns="http://www.w3.org/2000/svg" version="1.1">
<desc>Hex grid</desc>
<g id="hexes">
<polygon id="0" class="hexy" points="14.4,6.23538290724796 10.8000000074612,12.4707658101882 3.60000001492249,12.4707658231114 0,6.23538293309447 3.59999997015502,1.72310050672309e-08 10.7999999626938,-2.153875833244e-08"/>
<polygon id="1" class="hexy" points="14.4,18.7061487217439 10.8000000074612,24.9415316246841 3.60000001492249,24.9415316376073 0,18.7061487475904 3.59999997015502,12.4707658317269 10.7999999626938,12.4707657929572"/>
<polygon id="2" class="hexy" points="14.4,31.1769145362398 10.8000000074612,37.41229743918 3.60000001492249,37.4122974521032 0,31.1769145620863 3.59999997015502,24.9415316462228 10.7999999626938,24.9415316074531"/>
<polygon id="3" class="hexy" points="14.4,43.6476803507357 10.8000000074612,49.8830632536759 3.60000001492249,49.8830632665992 0,43.6476803765822 3.59999997015502,37.4122974607188 10.7999999626938,37.412297421949"/>
<polygon id="4" class="hexy" points="14.4,56.1184461652316 10.8000000074612,62.3538290681718 3.60000001492249,62.3538290810951 0,56.1184461910781 3.59999997015502,49.8830632752147 10.7999999626938,49.8830632364449"/>
<polygon id="5" class="hexy" points="14.4,68.5892119797275 10.8000000074612,74.8245948826677 3.60000001492249,74.824594895591 0,68.589212005574 3.59999997015502,62.3538290897106 10.7999999626938,62.3538290509408"/>
<polygon id="7" class="hexy" points="25.2,12.4707658144959 21.6000000074612,18.7061487174361 14.4000000149225,18.7061487303594 10.8,12.4707658403424 14.399999970155,6.23538292447896 21.5999999626938,6.2353828857092"/>
<polygon id="8" class="hexy" points="25.2,24.9415316289918 21.6000000074612,31.176914531932 14.4000000149225,31.1769145448553 10.8,24.9415316548383 14.399999970155,18.7061487389749 21.5999999626938,18.7061487002051"/>
<polygon id="9" class="hexy" points="25.2,37.4122974434878 21.6000000074612,43.647680346428 14.4000000149225,43.6476803593512 10.8,37.4122974693343 14.399999970155,31.1769145534708 21.5999999626938,31.176914514701"/>
<polygon id="10" class="hexy" points="25.2,49.8830632579837 21.6000000074612,56.1184461609239 14.4000000149225,56.1184461738471 10.8,49.8830632838302 14.399999970155,43.6476803679667 21.5999999626938,43.6476803291969"/>
<polygon id="11" class="hexy" points="25.2,62.3538290724796 21.6000000074612,68.5892119754198 14.4000000149225,68.589211988343 10.8,62.3538290983261 14.399999970155,56.1184461824626 21.5999999626938,56.1184461436929"/>
<polygon id="12" class="hexy" points="25.2,74.8245948869755 21.6000000074612,81.0599777899157 14.4000000149225,81.059977802839 10.8,74.824594912822 14.399999970155,68.5892119969586 21.5999999626938,68.5892119581888"/>
<polygon id="14" class="hexy" points="36,6.23538290724796 32.4000000074612,12.4707658101882 25.2000000149225,12.4707658231114 21.6,6.23538293309447 25.199999970155,1.72310050672309e-08 32.3999999626938,-2.153875833244e-08"/>
<polygon id="15" class="hexy" points="36,18.7061487217439 32.4000000074612,24.9415316246841 25.2000000149225,24.9415316376073 21.6,18.7061487475904 25.199999970155,12.4707658317269 32.3999999626938,12.4707657929572"/>
<polygon id="16" class="hexy" points="36,31.1769145362398 32.4000000074612,37.41229743918 25.2000000149225,37.4122974521032 21.6,31.1769145620863 25.199999970155,24.9415316462228 32.3999999626938,24.9415316074531"/>
<polygon id="17" class="hexy" points="36,43.6476803507357 32.4000000074612,49.8830632536759 25.2000000149225,49.8830632665992 21.6,43.6476803765822 25.199999970155,37.4122974607188 32.3999999626938,37.412297421949"/>
<polygon id="18" class="hexy" points="36,56.1184461652316 32.4000000074612,62.3538290681718 25.2000000149225,62.3538290810951 21.6,56.1184461910781 25.199999970155,49.8830632752147 32.3999999626938,49.8830632364449"/>
<polygon id="19" class="hexy" points="36,68.5892119797275 32.4000000074612,74.8245948826677 25.2000000149225,74.824594895591 21.6,68.589212005574 25.199999970155,62.3538290897106 32.3999999626938,62.3538290509408"/>
<polygon id="21" class="hexy" points="46.8,12.4707658144959 43.2000000074612,18.7061487174361 36.0000000149225,18.7061487303594 32.4,12.4707658403424 35.999999970155,6.23538292447896 43.1999999626938,6.2353828857092"/>
<polygon id="22" class="hexy" points="46.8,24.9415316289918 43.2000000074612,31.176914531932 36.0000000149225,31.1769145448553 32.4,24.9415316548383 35.999999970155,18.7061487389749 43.1999999626938,18.7061487002051"/>
<polygon id="23" class="hexy" points="46.8,37.4122974434878 43.2000000074612,43.647680346428 36.0000000149225,43.6476803593512 32.4,37.4122974693343 35.999999970155,31.1769145534708 43.1999999626938,31.176914514701"/>
<polygon id="24" class="hexy" points="46.8,49.8830632579837 43.2000000074612,56.1184461609239 36.0000000149225,56.1184461738471 32.4,49.8830632838302 35.999999970155,43.6476803679667 43.1999999626938,43.6476803291969"/>
<polygon id="25" class="hexy" points="46.8,62.3538290724796 43.2000000074612,68.5892119754198 36.0000000149225,68.589211988343 32.4,62.3538290983261 35.999999970155,56.1184461824626 43.1999999626938,56.1184461436929"/>
<polygon id="26" class="hexy" points="46.8,74.8245948869755 43.2000000074612,81.0599777899157 36.0000000149225,81.059977802839 32.4,74.824594912822 35.999999970155,68.5892119969586 43.1999999626938,68.5892119581888"/>
<polygon id="28" class="hexy" points="57.6,6.23538290724796 54.0000000074612,12.4707658101882 46.8000000149225,12.4707658231114 43.2,6.23538293309447 46.799999970155,1.72310050672309e-08 53.9999999626938,-2.153875833244e-08"/>
<polygon id="29" class="hexy" points="57.6,18.7061487217439 54.0000000074612,24.9415316246841 46.8000000149225,24.9415316376073 43.2,18.7061487475904 46.799999970155,12.4707658317269 53.9999999626938,12.4707657929572"/>
<polygon id="30" class="hexy" points="57.6,31.1769145362398 54.0000000074612,37.41229743918 46.8000000149225,37.4122974521032 43.2,31.1769145620863 46.799999970155,24.9415316462228 53.9999999626938,24.9415316074531"/>
<polygon id="31" class="hexy" points="57.6,43.6476803507357 54.0000000074612,49.8830632536759 46.8000000149225,49.8830632665992 43.2,43.6476803765822 46.799999970155,37.4122974607188 53.9999999626938,37.412297421949"/>
<polygon id="32" class="hexy" points="57.6,56.1184461652316 54.0000000074612,62.3538290681718 46.8000000149225,62.3538290810951 43.2,56.1184461910781 46.799999970155,49.8830632752147 53.9999999626938,49.8830632364449"/>
<polygon id="33" class="hexy" points="57.6,68.5892119797275 54.0000000074612,74.8245948826677 46.8000000149225,74.824594895591 43.2,68.589212005574 46.799999970155,62.3538290897106 53.9999999626938,62.3538290509408"/>
<polygon id="35" class="hexy" points="68.4,12.4707658144959 64.8000000074613,18.7061487174361 57.6000000149225,18.7061487303594 54,12.4707658403424 57.599999970155,6.23538292447896 64.7999999626938,6.2353828857092"/>
<polygon id="36" class="hexy" points="68.4,24.9415316289918 64.8000000074613,31.176914531932 57.6000000149225,31.1769145448553 54,24.9415316548383 57.599999970155,18.7061487389749 64.7999999626938,18.7061487002051"/>
<polygon id="37" class="hexy" points="68.4,37.4122974434878 64.8000000074613,43.647680346428 57.6000000149225,43.6476803593512 54,37.4122974693343 57.599999970155,31.1769145534708 64.7999999626938,31.176914514701"/>
<polygon id="38" class="hexy" points="68.4,49.8830632579837 64.8000000074613,56.1184461609239 57.6000000149225,56.1184461738471 54,49.8830632838302 57.599999970155,43.6476803679667 64.7999999626938,43.6476803291969"/>
<polygon id="39" class="hexy" points="68.4,62.3538290724796 64.8000000074613,68.5892119754198 57.6000000149225,68.589211988343 54,62.3538290983261 57.599999970155,56.1184461824626 64.7999999626938,56.1184461436929"/>
<polygon id="40" class="hexy" points="68.4,74.8245948869755 64.8000000074613,81.0599777899157 57.6000000149225,81.059977802839 54,74.824594912822 57.599999970155,68.5892119969586 64.7999999626938,68.5892119581888"/>
<polygon id="42" class="hexy" points="79.2,6.23538290724796 75.6000000074612,12.4707658101882 68.4000000149225,12.4707658231114 64.8,6.23538293309447 68.399999970155,1.72310050672309e-08 75.5999999626938,-2.153875833244e-08"/>
<polygon id="43" class="hexy" points="79.2,18.7061487217439 75.6000000074612,24.9415316246841 68.4000000149225,24.9415316376073 64.8,18.7061487475904 68.399999970155,12.4707658317269 75.5999999626938,12.4707657929572"/>
<polygon id="44" class="hexy" points="79.2,31.1769145362398 75.6000000074612,37.41229743918 68.4000000149225,37.4122974521032 64.8,31.1769145620863 68.399999970155,24.9415316462228 75.5999999626938,24.9415316074531"/>
<polygon id="45" class="hexy" points="79.2,43.6476803507357 75.6000000074612,49.8830632536759 68.4000000149225,49.8830632665992 64.8,43.6476803765822 68.399999970155,37.4122974607188 75.5999999626938,37.412297421949"/>
<polygon id="46" class="hexy" points="79.2,56.1184461652316 75.6000000074612,62.3538290681718 68.4000000149225,62.3538290810951 64.8,56.1184461910781 68.399999970155,49.8830632752147 75.5999999626938,49.8830632364449"/>
<polygon id="47" class="hexy" points="79.2,68.5892119797275 75.6000000074612,74.8245948826677 68.4000000149225,74.824594895591 64.8,68.589212005574 68.399999970155,62.3538290897106 75.5999999626938,62.3538290509408"/>
</g>
</svg>
