<?xml version="1.0" standalone="no"?>
<!DOCTYPE svg PUBLIC "-//W3C//DTD SVG 1.1//EN" "http://www.w3.org/Graphics/SVG/1.1/DTD/svg11.dtd">
<svg width="100%" height="100%" viewBox="0 0 241.2 107.001509423215" xmlns="http://www.w3.org/2000/svg" version="1.1">
<desc>Hex grid</desc>
<g id="hexes">
<polygon id="0" class="hexy" points="14.4,6.23538290724796 10.8000000074612,12.4707658101882 3.60000001492249,12.4707658231114 0,6.23538293309447 3.59999997015502,1.72310050672309e-08 10.7999999626938,-2.153875833244e-08"/>
<polygon id="1" class="hexy" points="14.4,18.7061487217439 10.8000000074612,24.9415316246841 3.60000001492249,24.9415316376073 0,18.7061487475904 3.59999997015502,12.4707658317269 10.7999999626938,12.4707657929572"/>
<polygon id="2" class="hexy" points="14.4,31.1769145362398 10.8000000074612,37.41229743918 3.60000001492249,37.4122974521032 0,31.1769145620863 3.59999997015502,24.9415316462228 10.7999999626938,24.9415316074531"/>
<polygon id="3" class="hexy" points="14.4,43.6476803507357 10.8000000074612,49.8830632536759 3.60000001492249,49.8830632665992 0,43.6476803765822 3.59999997015502,37.4122974607188 10.7999999626938,37.412297421949"/>
<polygon id="4" class="hexy" points="14.4,56.1184461652316 10.8000000074612,62.3538290681718 3.60000001492249,62.3538290810951 0,56.1184461910781 3.59999997015502,49.8830632752147 10.7999999626938,49.8830632364449"/>
<polygon id="5" class="hexy" points="14.4,68.5892119797275 10.8000000074612,74.8245948826677 3.60000001492249,74.824594895591 0,68.589212005574 3.59999997015502,62.3538290897106 10.7999999626938,62.3538290509408"/>
<polygon id="6" class="hexy" points="14.4,81.0599777942235 10.8000000074612,87.2953606971637 3.60000001492249,87.2953607100869 0,81.05997782007 3.59999997015502,74.8245949042065 10.7999999626938,74.8245948654367"/>
<polygon id="7" class="hexy" points="14.4,93.5307436087194 10.8000000074612,99.7661265116596 3.60000001492249,99.7661265245828 0,93.5307436345659 3.59999997015502,87.2953607187024 10.7999999626938,87.2953606799326"/>
<polygon id="22" class="hexy" points="25.2,12.4707658144959 21.6000000074612,18.7061487174361 14.4000000149225,18.7061487303594 10.8,12.4707658403424 14.399999970155,6.23538292447896 21.5999999626938,6.2353828857092"/>
<polygon id="23" class="hexy" points="25.2,24.9415316289918 21.6000000074612,31.176914531932 14.4000000149225,31.1769145448553 10.8,24.9415316548383 14.399999970155,18.7061487389749 21.5999999626938,18.7061487002051"/>
<polygon id="24" class="hexy" points="25.2,37.4122974434878 21.6000000074612,43.647680346428 14.4000000149225,43.6476803593512 10.8,37.4122974693343 14.399999970155,31.1769145534708 21.5999999626938,31.176914514701"/>
<polygon id="25" class="hexy" points="25.2,49.8830632579837 21.6000000074612,56.1184461609239 14.4000000149225,56.1184461738471 10.8,49.8830632838302 14.399999970155,43.6476803679667 21.5999999626938,43.6476803291969"/>
<polygon id="26" class="hexy" points="25.2,62.3538290724796 21.6000000074612,68.5892119754198 14.4000000149225,68.589211988343 10.8,62.3538290983261 14.399999970155,56.1184461824626 21.5999999626938,56.1184461436929"/>
<polygon id="27" class="hexy" points="25.2,74.8245948869755 21.6000000074612,81.0599777899157 14.4000000149225,81.059977802839 10.8,74.824594912822 14.399999970155,68.5892119969586 21.5999999626938,68.5892119581888"/>
<polygon id="28" class="hexy" points="25.2,87.2953607014714 21.6000000074612,93.5307436044116 14.4000000149225,93.5307436173349 10.8,87.2953607273179 14.399999970155,81.0599778114545 21.5999999626938,81.0599777726847"/>
<polygon id="29" class="hexy" points="25.2,99.7661265159673 21.6000000074612,106.001509418908 14.4000000149225,106.001509431831 10.8,99.7661265418138 14.399999970155,93.5307436259504 21.5999999626938,93.5307435871806"/>
<polygon id="44" class="hexy" points="36,6.23538290724796 32.4000000074612,12.4707658101882 25.2000000149225,12.4707658231114 21.6,6.23538293309447 25.199999970155,1.72310050672309e-08 32.3999999626938,-2.153875833244e-08"/>
<polygon id="45" class="hexy" points="36,18.7061487217439 32.4000000074612,24.9415316246841 25.2000000149225,24.9415316376073 21.6,18.7061487475904 25.199999970155,12.4707658317269 32.3999999626938,12.4707657929572"/>
<polygon id="46" class="hexy" points="36,31.1769145362398 32.4000000074612,37.41229743918 25.2000000149225,37.4122974521032 21.6,31.1769145620863 25.199999970155,24.9415316462228 32.3999999626938,24.9415316074531"/>
<polygon id="47" class="hexy" points="36,43.6476803507357 32.4000000074612,49.8830632536759 25.2000000149225,49.8830632665992 21.6,43.6476803765822 25.199999970155,37.4122974607188 32.3999999626938,37.412297421949"/>
<polygon id="48" class="hexy" points="36,56.1184461652316 32.4000000074612,62.3538290681718 25.2000000149225,62.3538290810951 21.6,56.1184461910781 25.199999970155,49.8830632752147 32.3999999626938,49.8830632364449"/>
<polygon id="49" class="hexy" points="36,68.5892119797275 32.4000000074612,74.8245948826677 25.2000000149225,74.824594895591 21.6,68.589212005574 25.199999970155,62.3538290897106 32.3999999626938,62.3538290509408"/>
<polygon id="50" class="hexy" points="36,81.0599777942235 32.4000000074612,87.2953606971637 25.2000000149225,87.2953607100869 21.6,81.05997782007 25.199999970155,74.8245949042065 32.3999999626938,74.8245948654367"/>
<polygon id="51" class="hexy" points="36,93.5307436087194 32.4000000074612,99.7661265116596 25.2000000149225,99.7661265245828 21.6,93.5307436345659 25.199999970155,87.2953607187024 32.3999999626938,87.2953606799326"/>
<polygon id="66" class="hexy" points="46.8,12.4707658144959 43.2000000074612,18.7061487174361 36.0000000149225,18.7061487303594 32.4,12.4707658403424 35.999999970155,6.23538292447896 43.1999999626938,6.2353828857092"/>
<polygon id="67" class="hexy" points="46.8,24.9415316289918 43.2000000074612,31.176914531932 36.0000000149225,31.1769145448553 32.4,24.9415316548383 35.999999970155,18.7061487389749 43.1999999626938,18.7061487002051"/>
<polygon id="68" class="hexy" points="46.8,37.4122974434878 43.2000000074612,43.647680346428 36.0000000149225,43.6476803593512 32.4,37.4122974693343 35.999999970155,31.1769145534708 43.1999999626938,31.176914514701"/>
<polygon id="69" class="hexy" points="46.8,49.8830632579837 43.2000000074612,56.1184461609239 36.0000000149225,56.1184461738471 32.4,49.8830632838302 35.999999970155,43.6476803679667 43.1999999626938,43.6476803291969"/>
<polygon id="70" class="hexy" points="46.8,62.3538290724796 43.2000000074612,68.5892119754198 36.0000000149225,68.589211988343 32.4,62.3538290983261 35.999999970155,56.1184461824626 43.1999999626938,56.1184461436929"/>
<polygon id="71" class="hexy" points="46.8,74.8245948869755 43.2000000074612,81.0599777899157 36.0000000149225,81.059977802839 32.4,74.824594912822 35.999999970155,68.5892119969586 43.1999999626938,68.5892119581888"/>
<polygon id="72" class="hexy" points="46.8,87.2953607014714 43.2000000074612,93.5307436044116 36.0000000149225,93.5307436173349 32.4,87.2953607273179 35.999999970155,81.0599778114545 43.1999999626938,81.0599777726847"/>
<polygon id="73" class="hexy" points="46.8,99.7661265159673 43.2000000074612,106.001509418908 36.0000000149225,106.001509431831 32.4,99.7661265418138 35.999999970155,93.5307436259504 43.1999999626938,93.5307435871806"/>
<polygon id="88" class="hexy" points="57.6,6.23538290724796 54.0000000074612,12.4707658101882 46.8000000149225,12.4707658231114 43.2,6.23538293309447 46.799999970155,1.72310050672309e-08 53.9999999626938,-2.153875833244e-08"/>
<polygon id="89" class="hexy" points="57.6,18.7061487217439 54.0000000074612,24.9415316246841 46.8000000149225,24.9415316376073 43.2,18.7061487475904 46.799999970155,12.4707658317269 53.9999999626938,12.4707657929572"/>
<polygon id="90" class="hexy" points="57.6,31.1769145362398 54.0000000074612,37.41229743918 46.8000000149225,37.4122974521032 43.2,31.1769145620863 46.799999970155,24.9415316462228 53.9999999626938,24.9415316074531"/>
<polygon id="91" class="hexy" points="57.6,43.6476803507357 54.0000000074612,49.8830632536759 46.8000000149225,49.8830632665992 43.2,43.6476803765822 46.799999970155,37.4122974607188 53.9999999626938,37.412297421949"/>
<polygon id="92" class="hexy" points="57.6,56.1184461652316 54.0000000074612,62.3538290681718 46.8000000149225,62.3538290810951 43.2,56.1184461910781 46.799999970155,49.8830632752147 53.9999999626938,49.8830632364449"/>
<polygon id="93" class="hexy" points="57.6,68.5892119797275 54.0000000074612,74.8245948826677 46.8000000149225,74.824594895591 43.2,68.589212005574 46.799999970155,62.3538290897106 53.9999999626938,62.3538290509408"/>
<polygon id="94" class="hexy" points="57.6,81.0599777942235 54.0000000074612,87.2953606971637 46.8000000149225,87.2953607100869 43.2,81.05997782007 46.799999970155,74.8245949042065 53.9999999626938,74.8245948654367"/>
<polygon id="95" class="hexy" points="57.6,93.5307436087194 54.0000000074612,99.7661265116596 46.8000000149225,99.7661265245828 43.2,93.5307436345659 46.799999970155,87.2953607187024 53.9999999626938,87.2953606799326"/>
<polygon id="110" class="hexy" points="68.4,12.4707658144959 64.8000000074613,18.7061487174361 57.6000000149225,18.7061487303594 54,12.4707658403424 57.599999970155,6.23538292447896 64.7999999626938,6.2353828857092"/>
<polygon id="111" class="hexy" points="68.4,24.9415316289918 64.8000000074613,31.176914531932 57.6000000149225,31.1769145448553 54,24.9415316548383 57.599999970155,18.7061487389749 64.7999999626938,18.7061487002051"/>
<polygon id="112" class="hexy" points="68.4,37.4122974434878 64.8000000074613,43.647680346428 57.6000000149225,43.6476803593512 54,37.4122974693343 57.599999970155,31.1769145534708 64.7999999626938,31.176914514701"/>
<polygon id="113" class="hexy" points="68.4,49.8830632579837 64.8000000074613,56.1184461609239 57.6000000149225,56.1184461738471 54,49.8830632838302 57.599999970155,43.6476803679667 64.7999999626938,43.6476803291969"/>
<polygon id="114" class="hexy" points="68.4,62.3538290724796 64.8000000074613,68.5892119754198 57.6000000149225,68.589211988343 54,62.3538290983261 57.599999970155,56.1184461824626 64.7999999626938,56.1184461436929"/>
<polygon id="115" class="hexy" points="68.4,74.8245948869755 64.8000000074613,81.0599777899157 57.6000000149225,81.059977802839 54,74.824594912822 57.599999970155,68.5892119969586 64.7999999626938,68.5892119581888"/>
<polygon id="116" class="hexy" points="68.4,87.2953607014714 64.8000000074613,93.5307436044116 57.6000000149225,93.5307436173349 54,87.2953607273179 57.599999970155,81.0599778114545 64.7999999626938,81.0599777726847"/>
<polygon id="117" class="hexy" points="68.4,99.7661265159673 64.8000000074613,106.001509418908 57.6000000149225,106.001509431831 54,99.7661265418138 57.599999970155,93.5307436259504 64.7999999626938,93.5307435871806"/>
<polygon id="132" class="hexy" points="79.2,6.23538290724796 75.6000000074612,12.4707658101882 68.4000000149225,12.4707658231114 64.8,6.23538293309447 68.399999970155,1.72310050672309e-08 75.5999999626938,-2.153875833244e-08"/>
<polygon id="133" class="hexy" points="79.2,18.7061487217439 75.6000000074612,24.9415316246841 68.4000000149225,24.9415316376073 64.8,18.7061487475904 68.399999970155,12.4707658317269 75.5999999626938,12.4707657929572"/>
<polygon id="134" class="hexy" points="79.2,31.1769145362398 75.6000000074612,37.41229743918 68.4000000149225,37.4122974521032 64.8,31.1769145620863 68.399999970155,24.9415316462228 75.5999999626938,24.9415316074531"/>
<polygon id="135" class="hexy" points="79.2,43.6476803507357 75.6000000074612,49.8830632536759 68.4000000149225,49.8830632665992 64.8,43.6476803765822 68.399999970155,37.4122974607188 75.5999999626938,37.412297421949"/>
<polygon id="136" class="hexy" points="79.2,56.1184461652316 75.6000000074612,62.3538290681718 68.4000000149225,62.3538290810951 64.8,56.1184461910781 68.399999970155,49.8830632752147 75.5999999626938,49.8830632364449"/>
<polygon id="137" class="hexy" points="79.2,68.5892119797275 75.6000000074612,74.8245948826677 68.4000000149225,74.824594895591 64.8,68.589212005574 68.399999970155,62.3538290897106 75.5999999626938,62.3538290509408"/>
<polygon id="138" class="hexy" points="79.2,81.0599777942235 75.6000000074612,87.2953606971637 68.4000000149225,87.2953607100869 64.8,81.05997782007 68.399999970155,74.8245949042065 75.5999999626938,74.8245948654367"/>
<polygon id="139" class="hexy" points="79.2,93.5307436087194 75.6000000074612,99.7661265116596 68.4000000149225,99.7661265245828 64.8,93.5307436345659 68.399999970155,87.2953607187024 75.5999999626938,87.2953606799326"/>
<polygon id="154" class="hexy" points="90,12.4707658144959 86.4000000074612,18.7061487174361 79.2000000149225,18.7061487303594 75.6,12.4707658403424 79.199999970155,6.23538292447896 86.3999999626938,6.2353828857092"/>
<polygon id="155" class="hexy" points="90,24.9415316289918 86.4000000074612,31.176914531932 79.2000000149225,31.1769145448553 75.6,24.9415316548383 79.199999970155,18.7061487389749 86.3999999626938,18.7061487002051"/>
<polygon id="156" class="hexy" points="90,37.4122974434878 86.4000000074612,43.647680346428 79.2000000149225,43.6476803593512 75.6,37.4122974693343 79.199999970155,31.1769145534708 86.3999999626938,31.176914514701"/>
<polygon id="157" class="hexy" points="90,49.8830632579837 86.4000000074612,56.1184461609239 79.2000000149225,56.1184461738471 75.6,49.8830632838302 79.199999970155,43.6476803679667 86.3999999626938,43.6476803291969"/>
<polygon id="158" class="hexy" points="90,62.3538290724796 86.4000000074612,68.5892119754198 79.2000000149225,68.589211988343 75.6,62.3538290983261 79.199999970155,56.1184461824626 86.3999999626938,56.1184461436929"/>
<polygon id="159" class="hexy" points="90,74.8245948869755 86.4000000074612,81.0599777899157 79.2000000149225,81.059977802839 75.6,74.824594912822 79.199999970155,68.5892119969586 86.3999999626938,68.5892119581888"/>
<polygon id="160" class="hexy" points="90,87.2953607014714 86.4000000074612,93.5307436044116 79.2000000149225,93.5307436173349 75.6,87.2953607273179 79.199999970155,81.0599778114545 86.3999999626938,81.0599777726847"/>
<polygon id="161" class="hexy" points="90,99.7661265159673 86.4000000074612,106.001509418908 79.2000000149225,106.001509431831 75.6,99.7661265418138 79.199999970155,93.5307436259504 86.3999999626938,93.5307435871806"/>
<polygon id="176" class="hexy" points="100.8,6.23538290724796 97.2000000074613,12.4707658101882 90.0000000149225,12.4707658231114 86.4,6.23538293309447 89.999999970155,1.72310050672309e-08 97.1999999626938,-2.153875833244e-08"/>
<polygon id="177" class="hexy" points="100.8,18.7061487217439 97.2000000074613,24.9415316246841 90.0000000149225,24.9415316376073 86.4,18.7061487475904 89.999999970155,12.4707658317269 97.1999999626938,12.4707657929572"/>
<polygon id="178" class="hexy" points="100.8,31.1769145362398 97.2000000074613,37.41229743918 90.0000000149225,37.4122974521032 86.4,31.1769145620863 89.999999970155,24.9415316462228 97.1999999626938,24.9415316074531"/>
<polygon id="179" class="hexy" points="100.8,43.6476803507357 97.2000000074613,49.8830632536759 90.0000000149225,49.8830632665992 86.4,43.6476803765822 89.999999970155,37.4122974607188 97.1999999626938,37.412297421949"/>
<polygon id="180" class="hexy" points="100.8,56.1184461652316 97.2000000074613,62.3538290681718 90.0000000149225,62.3538290810951 86.4,56.1184461910781 89.999999970155,49.8830632752147 97.1999999626938,49.8830632364449"/>
<polygon id="181" class="hexy" points="100.8,68.5892119797275 97.2000000074613,74.8245948826677 90.0000000149225,74.824594895591 86.4,68.589212005574 89.999999970155,62.3538290897106 97.1999999626938,62.3538290509408"/>
<polygon id="182" class="hexy" points="100.8,81.0599777942235 97.2000000074613,87.2953606971637 90.0000000149225,87.2953607100869 86.4,81.05997782007 89.999999970155,74.8245949042065 97.1999999626938,74.8245948654367"/>
<polygon id="183" class="hexy" points="100.8,93.5307436087194 97.2000000074613,99.7661265116596 90.0000000149225,99.7661265245828 86.4,93.5307436345659 89.999999970155,87.2953607187024 97.1999999626938,87.2953606799326"/>
<polygon id="198" class="hexy" points="111.6,12.4707658144959 108.000000007461,18.7061487174361 100.800000014922,18.7061487303594 97.2,12.4707658403424 100.799999970155,6.23538292447896 107.999999962694,6.2353828857092"/>
<polygon id="199" class="hexy" points="111.6,24.9415316289918 108.000000007461,31.176914531932 100.800000014922,31.1769145448553 97.2,24.9415316548383 100.799999970155,18.7061487389749 107.999999962694,18.7061487002051"/>
<polygon id="200" class="hexy" points="111.6,37.4122974434878 108.000000007461,43.647680346428 100.800000014922,43.6476803593512 97.2,37.4122974693343 100.799999970155,31.1769145534708 107.999999962694,31.176914514701"/>
<polygon id="201" class="hexy" points="111.6,49.8830632579837 108.000000007461,56.1184461609239 100.800000014922,56.1184461738471 97.2,49.8830632838302 100.799999970155,43.6476803679667 107.999999962694,43.6476803291969"/>
<polygon id="202" class="hexy" points="111.6,62.3538290724796 108.000000007461,68.5892119754198 100.800000014922,68.589211988343 97.2,62.3538290983261 100.799999970155,56.1184461824626 107.999999962694,56.1184461436929"/>
<polygon id="203" class="hexy" points="111.6,74.8245948869755 108.000000007461,81.0599777899157 100.800000014922,81.059977802839 97.2,74.824594912822 100.799999970155,68.5892119969586 107.999999962694,68.5892119581888"/>
<polygon id="204" class="hexy" points="111.6,87.2953607014714 108.000000007461,93.5307436044116 100.800000014922,93.5307436173349 97.2,87.2953607273179 100.799999970155,81.0599778114545 107.999999962694,81.0599777726847"/>
<polygon id="205" class="hexy" points="111.6,99.7661265159673 108.000000007461,106.001509418908 100.800000014922,106.001509431831 97.2,99.7661265418138 100.799999970155,93.5307436259504 107.999999962694,93.5307435871806"/>
<polygon id="220" class="hexy" points="122.4,6.23538290724796 118.800000007461,12.4707658101882 111.600000014922,12.4707658231114 108,6.23538293309447 111.599999970155,1.72310050672309e-08 118.799999962694,-2.153875833244e-08"/>
<polygon id="221" class="hexy" points="122.4,18.7061487217439 118.800000007461,24.9415316246841 111.600000014922,24.9415316376073 108,18.7061487475904 111.599999970155,12.4707658317269 118.799999962694,12.4707657929572"/>
<polygon id="222" class="hexy" points="122.4,31.1769145362398 118.800000007461,37.41229743918 111.600000014922,37.4122974521032 108,31.1769145620863 111.599999970155,24.9415316462228 118.799999962694,24.9415316074531"/>
<polygon id="223" class="hexy" points="122.4,43.6476803507357 118.800000007461,49.8830632536759 111.600000014922,49.8830632665992 108,43.6476803765822 111.599999970155,37.4122974607188 118.799999962694,37.412297421949"/>
<polygon id="224" class="hexy" points="122.4,56.1184461652316 118.800000007461,62.3538290681718 111.600000014922,62.3538290810951 108,56.1184461910781 111.599999970155,49.8830632752147 118.799999962694,49.8830632364449"/>
<polygon id="225" class="hexy" points="122.4,68.5892119797275 118.800000007461,74.8245948826677 111.600000014922,74.824594895591 108,68.589212005574 111.599999970155,62.3538290897106 118.799999962694,62.3538290509408"/>
<polygon id="226" class="hexy" points="122.4,81.0599777942235 118.800000007461,87.2953606971637 111.600000014922,87.2953607100869 108,81.05997782007 111.599999970155,74.8245949042065 118.799999962694,74.8245948654367"/>
<polygon id="227" class="hexy" points="122.4,93.5307436087194 118.800000007461,99.7661265116596 111.600000014922,99.7661265245828 108,93.5307436345659 111.599999970155,87.2953607187024 118.799999962694,87.2953606799326"/>
<polygon id="242" class="hexy" points="133.2,12.4707658144959 129.600000007461,18.7061487174361 122.400000014922,18.7061487303594 118.8,12.4707658403424 122.399999970155,6.23538292447896 129.599999962694,6.2353828857092"/>
<polygon id="243" class="hexy" points="133.2,24.9415316289918 129.600000007461,31.176914531932 122.400000014922,31.1769145448553 118.8,24.9415316548383 122.399999970155,18.7061487389749 129.599999962694,18.7061487002051"/>
<polygon id="244" class="hexy" points="133.2,37.4122974434878 129.600000007461,43.647680346428 122.400000014922,43.6476803593512 118.8,37.4122974693343 122.399999970155,31.1769145534708 129.599999962694,31.176914514701"/>
<polygon id="245" class="hexy" points="133.2,49.8830632579837 129.600000007461,56.1184461609239 122.400000014922,56.1184461738471 118.8,49.8830632838302 122.399999970155,43.6476803679667 129.599999962694,43.6476803291969"/>
<polygon id="246" class="hexy" points="133.2,62.3538290724796 129.600000007461,68.5892119754198 122.400000014922,68.589211988343 118.8,62.3538290983261 122.399999970155,56.1184461824626 129.599999962694,56.1184461436929"/>
<polygon id="247" class="hexy" points="133.2,74.8245948869755 129.600000007461,81.0599777899157 122.400000014922,81.059977802839 118.8,74.824594912822 122.399999970155,68.5892119969586 129.599999962694,68.5892119581888"/>
<polygon id="248" class="hexy" points="133.2,87.2953607014714 129.600000007461,93.5307436044116 122.400000014922,93.5307436173349 118.8,87.2953607273179 122.399999970155,81.0599778114545 129.599999962694,81.0599777726847"/>
<polygon id="249" class="hexy" points="133.2,99.7661265159673 129.600000007461,106.001509418908 122.400000014922,106.001509431831 118.8,99.7661265418138 122.399999970155,93.5307436259504 129.599999962694,93.5307435871806"/>
<polygon id="264" class="hexy" points="144,6.23538290724796 140.400000007461,12.4707658101882 133.200000014922,12.4707658231114 129.6,6.23538293309447 133.199999970155,1.72310050672309e-08 140.399999962694,-2.153875833244e-08"/>
<polygon id="265" class="hexy" points="144,18.7061487217439 140.400000007461,24.9415316246841 133.200000014922,24.9415316376073 129.6,18.7061487475904 133.199999970155,12.4707658317269 140.399999962694,12.4707657929572"/>
<polygon id="266" class="hexy" points="144,31.1769145362398 140.400000007461,37.41229743918 133.200000014922,37.4122974521032 129.6,31.1769145620863 133.199999970155,24.9415316462228 140.399999962694,24.9415316074531"/>
<polygon id="267" class="hexy" points="144,43.6476803507357 140.400000007461,49.8830632536759 133.200000014922,49.8830632665992 129.6,43.6476803765822 133.199999970155,37.4122974607188 140.399999962694,37.412297421949"/>
<polygon id="268" class="hexy" points="144,56.1184461652316 140.400000007461,62.3538290681718 133.200000014922,62.3538290810951 129.6,56.1184461910781 133.199999970155,49.8830632752147 140.399999962694,49.8830632364449"/>
<polygon id="269" class="hexy" points="144,68.5892119797275 140.400000007461,74.8245948826677 133.200000014922,74.824594895591 129.6,68.589212005574 133.199999970155,62.3538290897106 140.399999962694,62.3538290509408"/>
<polygon id="270" class="hexy" points="144,81.0599777942235 140.400000007461,87.2953606971637 133.200000014922,87.2953607100869 129.6,81.05997782007 133.199999970155,74.8245949042065 140.399999962694,74.8245948654367"/>
<polygon id="271" class="hexy" points="144,93.5307436087194 140.400000007461,99.7661265116596 133.200000014922,99.7661265245828 129.6,93.5307436345659 133.199999970155,87.2953607187024 140.399999962694,87.2953606799326"/>
<polygon id="286" class="hexy" points="154.8,12.4707658144959 151.200000007461,18.7061487174361 144.000000014922,18.7061487303594 140.4,12.4707658403424 143.999999970155,6.23538292447896 151.199999962694,6.2353828857092"/>
<polygon id="287" class="hexy" points="154.8,24.9415316289918 151.200000007461,31.176914531932 144.000000014922,31.1769145448553 140.4,24.9415316548383 143.999999970155,18.7061487389749 151.199999962694,18.7061487002051"/>
<polygon id="288" class="hexy" points="154.8,37.4122974434878 151.200000007461,43.647680346428 144.000000014922,43.6476803593512 140.4,37.4122974693343 143.999999970155,31.1769145534708 151.199999962694,31.176914514701"/>
<polygon id="289" class="hexy" points="154.8,49.8830632579837 151.200000007461,56.1184461609239 144.000000014922,56.1184461738471 140.4,49.8830632838302 143.999999970155,43.6476803679667 151.199999962694,43.6476803291969"/>
<polygon id="290" class="hexy" points="154.8,62.3538290724796 151.200000007461,68.5892119754198 144.000000014922,68.589211988343 140.4,62.3538290983261 143.999999970155,56.1184461824626 151.199999962694,56.1184461436929"/>
<polygon id="291" class="hexy" points="154.8,74.8245948869755 151.200000007461,81.0599777899157 144.000000014922,81.059977802839 140.4,74.824594912822 143.999999970155,68.5892119969586 151.199999962694,68.5892119581888"/>
<polygon id="292" class="hexy" points="154.8,87.2953607014714 151.200000007461,93.5307436044116 144.000000014922,93.5307436173349 140.4,87.2953607273179 143.999999970155,81.0599778114545 151.199999962694,81.0599777726847"/>
<polygon id="293" class="hexy" points="154.8,99.7661265159673 151.200000007461,106.001509418908 144.000000014922,106.001509431831 140.4,99.7661265418138 143.999999970155,93.5307436259504 151.199999962694,93.5307435871806"/>
<polygon id="308" class="hexy" points="165.6,6.23538290724796 162.000000007461,12.4707658101882 154.800000014922,12.4707658231114 151.2,6.23538293309447 154.799999970155,1.72310050672309e-08 161.999999962694,-2.153875833244e-08"/>
<polygon id="309" class="hexy" points="165.6,18.7061487217439 162.000000007461,24.9415316246841 154.800000014922,24.9415316376073 151.2,18.7061487475904 154.799999970155,12.4707658317269 161.999999962694,12.4707657929572"/>
<polygon id="310" class="hexy" points="165.6,31.1769145362398 162.000000007461,37.41229743918 154.800000014922,37.4122974521032 151.2,31.1769145620863 154.799999970155,24.9415316462228 161.999999962694,24.9415316074531"/>
<polygon id="311" class="hexy" points="165.6,43.6476803507357 162.000000007461,49.8830632536759 154.800000014922,49.8830632665992 151.2,43.6476803765822 154.799999970155,37.4122974607188 161.999999962694,37.412297421949"/>
<polygon id="312" class="hexy" points="165.6,56.1184461652316 162.000000007461,62.3538290681718 154.800000014922,62.3538290810951 151.2,56.1184461910781 154.799999970155,49.8830632752147 161.999999962694,49.8830632364449"/>
<polygon id="313" class="hexy" points="165.6,68.5892119797275 162.000000007461,74.8245948826677 154.800000014922,74.824594895591 151.2,68.589212005574 154.799999970155,62.3538290897106 161.999999962694,62.3538290509408"/>
<polygon id="314" class="hexy" points="165.6,81.0599777942235 162.000000007461,87.2953606971637 154.800000014922,87.2953607100869 151.2,81.05997782007 154.799999970155,74.8245949042065 161.999999962694,74.8245948654367"/>
<polygon id="315" class="hexy" points="165.6,93.5307436087194 162.000000007461,99.7661265116596 154.800000014922,99.7661265245828 151.2,93.5307436345659 154.799999970155,87.2953607187024 161.999999962694,87.2953606799326"/>
<polygon id="330" class="hexy" points="176.4,12.4707658144959 172.800000007461,18.7061487174361 165.600000014923,18.7061487303594 162,12.4707658403424 165.599999970155,6.23538292447896 172.799999962694,6.2353828857092"/>
<polygon id="331" class="hexy" points="176.4,24.9415316289918 172.800000007461,31.176914531932 165.600000014923,31.1769145448553 162,24.9415316548383 165.599999970155,18.7061487389749 172.799999962694,18.7061487002051"/>
<polygon id="332" class="hexy" points="176.4,37.4122974434878 172.800000007461,43.647680346428 165.600000014923,43.6476803593512 162,37.4122974693343 165.599999970155,31.1769145534708 172.799999962694,31.176914514701"/>
<polygon id="333" class="hexy" points="176.4,49.8830632579837 172.800000007461,56.1184461609239 165.600000014923,56.1184461738471 162,49.8830632838302 165.599999970155,43.6476803679667 172.799999962694,43.6476803291969"/>
<polygon id="334" class="hexy" points="176.4,62.3538290724796 172.800000007461,68.5892119754198 165.600000014923,68.589211988343 162,62.3538290983261 165.599999970155,56.1184461824626 172.799999962694,56.1184461436929"/>
<polygon id="335" class="hexy" points="176.4,74.8245948869755 172.800000007461,81.0599777899157 165.600000014923,81.059977802839 162,74.824594912822 165.599999970155,68.5892119969586 172.799999962694,68.5892119581888"/>
<polygon id="336" class="hexy" points="176.4,87.2953607014714 172.800000007461,93.5307436044116 165.600000014923,93.5307436173349 162,87.2953607273179 165.599999970155,81.0599778114545 172.799999962694,81.0599777726847"/>
<polygon id="337" class="hexy" points="176.4,99.7661265159673 172.800000007461,106.001509418908 165.600000014923,106.001509431831 162,99.7661265418138 165.599999970155,93.5307436259504 172.799999962694,93.5307435871806"/>
<polygon id="352" class="hexy" points="187.2,6.23538290724796 183.600000007461,12.4707658101882 176.400000014922,12.4707658231114 172.8,6.23538293309447 176.399999970155,1.72310050672309e-08 183.599999962694,-2.153875833244e-08"/>
<polygon id="353" class="hexy" points="187.2,18.7061487217439 183.600000007461,24.9415316246841 176.400000014922,24.9415316376073 172.8,18.7061487475904 176.399999970155,12.4707658317269 183.599999962694,12.4707657929572"/>
<polygon id="354" class="hexy" points="187.2,31.1769145362398 183.600000007461,37.41229743918 176.400000014922,37.4122974521032 172.8,31.1769145620863 176.399999970155,24.9415316462228 183.599999962694,24.9415316074531"/>
<polygon id="355" class="hexy" points="187.2,43.6476803507357 183.600000007461,49.8830632536759 176.400000014922,49.8830632665992 172.8,43.6476803765822 176.399999970155,37.4122974607188 183.599999962694,37.412297421949"/>
<polygon id="356" class="hexy" points="187.2,56.1184461652316 183.600000007461,62.3538290681718 176.400000014922,62.3538290810951 172.8,56.1184461910781 176.399999970155,49.8830632752147 183.599999962694,49.8830632364449"/>
<polygon id="357" class="hexy" points="187.2,68.5892119797275 183.600000007461,74.8245948826677 176.400000014922,74.824594895591 172.8,68.589212005574 176.399999970155,62.3538290897106 183.599999962694,62.3538290509408"/>
<polygon id="358" class="hexy" points="187.2,81.0599777942235 183.600000007461,87.2953606971637 176.400000014922,87.2953607100869 172.8,81.05997782007 176.399999970155,74.8245949042065 183.599999962694,74.8245948654367"/>
<polygon id="359" class="hexy" points="187.2,93.5307436087194 183.600000007461,99.7661265116596 176.400000014922,99.7661265245828 172.8,93.5307436345659 176.399999970155,87.2953607187024 183.599999962694,87.2953606799326"/>
<polygon id="374" class="hexy" points="198,12.4707658144959 194.400000007461,18.7061487174361 187.200000014922,18.7061487303594 183.6,12.4707658403424 187.199999970155,6.23538292447896 194.399999962694,6.2353828857092"/>
<polygon id="375" class="hexy" points="198,24.9415316289918 194.400000007461,31.176914531932 187.200000014922,31.1769145448553 183.6,24.9415316548383 187.199999970155,18.7061487389749 194.399999962694,18.7061487002051"/>
<polygon id="376" class="hexy" points="198,37.4122974434878 194.400000007461,43.647680346428 187.200000014922,43.6476803593512 183.6,37.4122974693343 187.199999970155,31.1769145534708 194.399999962694,31.176914514701"/>
<polygon id="377" class="hexy" points="198,49.8830632579837 194.400000007461,56.1184461609239 187.200000014922,56.1184461738471 183.6,49.8830632838302 187.199999970155,43.6476803679667 194.399999962694,43.6476803291969"/>
<polygon id="378" class="hexy" points="198,62.3538290724796 194.400000007461,68.5892119754198 187.200000014922,68.589211988343 183.6,62.3538290983261 187.199999970155,56.1184461824626 194.399999962694,56.1184461436929"/>
<polygon id="379" class="hexy" points="198,74.8245948869755 194.400000007461,81.0599777899157 187.200000014922,81.059977802839 183.6,74.824594912822 187.199999970155,68.5892119969586 194.399999962694,68.5892119581888"/>
<polygon id="380" class="hexy" points="198,87.2953607014714 194.400000007461,93.5307436044116 187.200000014922,93.5307436173349 183.6,87.2953607273179 187.199999970155,81.0599778114545 194.399999962694,81.0599777726847"/>
<polygon id="381" class="hexy" points="198,99.7661265159673 194.400000007461,106.001509418908 187.200000014922,106.001509431831 183.6,99.7661265418138 187.199999970155,93.5307436259504 194.399999962694,93.5307435871806"/>
<polygon id="396" class="hexy" points="208.8,6.23538290724796 205.200000007461,12.4707658101882 198.000000014922,12.4707658231114 194.4,6.23538293309447 197.999999970155,1.72310050672309e-08 205.199999962694,-2.153875833244e-08"/>
<polygon id="397" class="hexy" points="208.8,18.7061487217439 205.200000007461,24.9415316246841 198.000000014922,24.9415316376073 194.4,18.7061487475904 197.999999970155,12.4707658317269 205.199999962694,12.4707657929572"/>
<polygon id="398" class="hexy" points="208.8,31.1769145362398 205.200000007461,37.41229743918 198.000000014922,37.4122974521032 194.4,31.1769145620863 197.999999970155,24.9415316462228 205.199999962694,24.9415316074531"/>
<polygon id="399" class="hexy" points="208.8,43.6476803507357 205.200000007461,49.8830632536759 198.000000014922,49.8830632665992 194.4,43.6476803765822 197.999999970155,37.4122974607188 205.199999962694,37.412297421949"/>
<polygon id="400" class="hexy" points="208.8,56.1184461652316 205.200000007461,62.3538290681718 198.000000014922,62.3538290810951 194.4,56.1184461910781 197.999999970155,49.8830632752147 205.199999962694,49.8830632364449"/>
<polygon id="401" class="hexy" points="208.8,68.5892119797275 205.200000007461,74.8245948826677 198.000000014922,74.824594895591 194.4,68.589212005574 197.999999970155,62.3538290897106 205.199999962694,62.3538290509408"/>
<polygon id="402" class="hexy" points="208.8,81.0599777942235 205.200000007461,87.2953606971637 198.000000014922,87.2953607100869 194.4,81.05997782007 197.999999970155,74.8245949042065 205.199999962694,74.8245948654367"/>
<polygon id="403" class="hexy" points="208.8,93.5307436087194 205.200000007461,99.7661265116596 198.000000014922,99.7661265245828 194.4,93.5307436345659 197.999999970155,87.2953607187024 205.199999962694,87.2953606799326"/>
<polygon id="418" class="hexy" points="219.6,12.4707658144959 216.000000007461,18.7061487174361 208.800000014922,18.7061487303594 205.2,12.4707658403424 208.799999970155,6.23538292447896 215.999999962694,6.2353828857092"/>
<polygon id="419" class="hexy" points="219.6,24.9415316289918 216.000000007461,31.176914531932 208.800000014922,31.1769145448553 205.2,24.9415316548383 208.799999970155,18.7061487389749 215.999999962694,18.7061487002051"/>
<polygon id="420" class="hexy" points="219.6,37.4122974434878 216.000000007461,43.647680346428 208.800000014922,43.6476803593512 205.2,37.4122974693343 208.799999970155,31.1769145534708 215.999999962694,31.176914514701"/>
<polygon id="421" class="hexy" points="219.6,49.8830632579837 216.000000007461,56.1184461609239 208.800000014922,56.1184461738471 205.2,49.8830632838302 208.799999970155,43.6476803679667 215.999999962694,43.6476803291969"/>
<polygon id="422" class="hexy" points="219.6,62.3538290724796 216.000000007461,68.5892119754198 208.800000014922,68.589211988343 205.2,62.3538290983261 208.799999970155,56.1184461824626 215.999999962694,56.1184461436929"/>
<polygon id="423" class="hexy" points="219.6,74.8245948869755 216.000000007461,81.0599777899157 208.800000014922,81.059977802839 205.2,74.824594912822 208.799999970155,68.5892119969586 215.999999962694,68.5892119581888"/>
<polygon id="424" class="hexy" points="219.6,87.2953607014714 216.000000007461,93.5307436044116 208.800000014922,93.5307436173349 205.2,87.2953607273179 208.799999970155,81.0599778114545 215.999999962694,81.0599777726847"/>
<polygon id="425" class="hexy" points="219.6,99.7661265159673 216.000000007461,106.001509418908 208.800000014922,106.001509431831 205.2,99.7661265418138 208.799999970155,93.5307436259504 215.999999962694,93.5307435871806"/>
<polygon id="440" class="hexy" points="230.4,6.23538290724796 226.800000007461,12.4707658101882 219.600000014923,12.4707658231114 216,6.23538293309447 219.599999970155,1.72310050672309e-08 226.799999962694,-2.153875833244e-08"/>
<polygon id="441" class="hexy" points="230.4,18.7061487217439 226.800000007461,24.9415316246841 219.600000014923,24.9415316376073 216,18.7061487475904 219.599999970155,12.4707658317269 226.799999962694,12.4707657929572"/>
<polygon id="442" class="hexy" points="230.4,31.1769145362398 226.800000007461,37.41229743918 219.600000014923,37.4122974521032 216,31.1769145620863 219.599999970155,24.9415316462228 226.799999962694,24.9415316074531"/>
<polygon id="443" class="hexy" points="230.4,43.6476803507357 226.800000007461,49.8830632536759 219.600000014923,49.8830632665992 216,43.6476803765822 219.599999970155,37.4122974607188 226.799999962694,37.412297421949"/>
<polygon id="444" class="hexy" points="230.4,56.1184461652316 226.800000007461,62.3538290681718 219.600000014923,62.3538290810951 216,56.1184461910781 219.599999970155,49.8830632752147 226.799999962694,49.8830632364449"/>
<polygon id="445" class="hexy" points="230.4,68.5892119797275 226.800000007461,74.8245948826677 219.600000014923,74.824594895591 216,68.589212005574 219.599999970155,62.3538290897106 226.799999962694,62.3538290509408"/>
<polygon id="446" class="hexy" points="230.4,81.0599777942235 226.800000007461,87.2953606971637 219.600000014923,87.2953607100869 216,81.05997782007 219.599999970155,74.8245949042065 226.799999962694,74.8245948654367"/>
<polygon id="447" class="hexy" points="230.4,93.5307436087194 226.800000007461,99.7661265116596 219.600000014923,99.7661265245828 216,93.5307436345659 219.599999970155,87.2953607187024 226.799999962694,87.2953606799326"/>
<polygon id="462" class="hexy" points="241.2,12.4707658144959 237.600000007461,18.7061487174361 230.400000014922,18.7061487303594 226.8,12.4707658403424 230.399999970155,6.23538292447896 237.599999962694,6.2353828857092"/>
<polygon id="463" class="hexy" points="241.2,24.9415316289918 237.600000007461,31.176914531932 230.400000014922,31.1769145448553 226.8,24.9415316548383 230.399999970155,18.7061487389749 237.599999962694,18.7061487002051"/>
<polygon id="464" class="hexy" points="241.2,37.4122974434878 237.600000007461,43.647680346428 230.400000014922,43.6476803593512 226.8,37.4122974693343 230.399999970155,31.1769145534708 237.599999962694,31.176914514701"/>
<polygon id="465" class="hexy" points="241.2,49.8830632579837 237.600000007461,56.1184461609239 230.400000014922,56.1184461738471 226.8,49.8830632838302 230.399999970155,43.6476803679667 237.599999962694,43.6476803291969"/>
<polygon id="466" class="hexy" points="241.2,62.3538290724796 237.600000007461,68.5892119754198 230.400000014922,68.589211988343 226.8,62.3538290983261 230.399999970155,56.1184461824626 237.599999962694,56.1184461436929"/>
<polygon id="467" class="hexy" points="241.2,74.8245948869755 237.600000007461,81.0599777899157 230.400000014922,81.059977802839 226.8,74.824594912822 230.399999970155,68.5892119969586 237.599999962694,68.5892119581888"/>
<polygon id="468" class="hexy" points="241.2,87.2953607014714 237.600000007461,93.5307436044116 230.400000014922,93.5307436173349 226.8,87.2953607273179 230.399999970155,81.0599778114545 237.599999962694,81.0599777726847"/>
<polygon id="469" class="hexy" points="241.2,99.7661265159673 237.600000007461,106.001509418908 230.400000014922,106.001509431831 226.8,99.7661265418138 230.399999970155,93.5307436259504 237.599999962694,93.5307435871806"/>
</g>
</svg>
